<svg xmlns="http://www.w3.org/2000/svg" xmlns:xlink="http://www.w3.org/1999/xlink" xmlns:lucid="lucid" width="3682" height="2142"><g transform="translate(-579 1381)" lucid:page-tab-id="0_0"><path d="M500-1500h4000v2500H500z" fill="#fff"/><path d="M770-1050c5.52 0 10 4.48 10 10v80c0 5.52-4.48 10-10 10H590c-5.52 0-10-4.48-10-10v-80c0-5.52 4.48-10 10-10z" stroke="#3a414a" stroke-width="2" fill="#fff"/><use xlink:href="#a" transform="matrix(1,0,0,1,600,-1050) translate(55.20616319444444 58.08376736111111)"/><path d="M3190 660c5.52 0 10 4.48 10 10v80c0 5.52-4.48 10-10 10h-180c-5.52 0-10-4.48-10-10v-80c0-5.52 4.48-10 10-10z" stroke="#3a414a" stroke-width="2" fill="#fff"/><use xlink:href="#b" transform="matrix(1,0,0,1,3020,660) translate(49.162326388888886 58.08376736111111)"/><path d="M3000-94a6 6 0 0 1 6-6h188a6 6 0 0 1 6 6v88a6 6 0 0 1-6 6h-188a6 6 0 0 1-6-6z" fill="#fff"/><path d="M3000-100h200m0 100h-200" stroke="#3a414a" stroke-width="2" fill="#fff"/><use xlink:href="#c" transform="matrix(1,0,0,1,3020.000000000001,-100) translate(10.034722222222229 58.08376736111111)"/><path d="M3184 220c8.84 0 16 7.16 16 16v128c0 8.84-7.16 16-16 16h-168c-8.84 0-16-7.16-16-16V236c0-8.84 7.16-16 16-16z" stroke="#3a414a" stroke-width="2" fill="#fff"/><path d="M3000 272h200" stroke="#3a414a" stroke-width="2" fill="none"/><use xlink:href="#d" transform="matrix(1,0,0,1,3020,220) translate(65.55230034722223 34.083767361111114)"/><use xlink:href="#e" transform="matrix(1,0,0,1,3020,282) translate(42.55425347222223 38.63975694444444)"/><use xlink:href="#f" transform="matrix(1,0,0,1,3020,282) translate(39.91753472222222 65.52777777777777)"/><path d="M3152.47 642.62h-.94V582.1h.94zm0-82.04h-.94V381.5h.94z" stroke="#3a414a" stroke-width=".05" fill="#3a414a"/><path d="M3152.47 381.5h-.94v-.5h.94z" fill="#3a414a"/><path stroke="#3a414a" stroke-width=".05" fill="#3a414a"/><path d="M3152 657.38l-4.64-14.26h9.28z" fill="#3a414a"/><path d="M3152 658.92l-5.3-16.28h10.6zm-3.98-15.33l3.98 12.25 3.98-12.26z" stroke="#3a414a" stroke-width=".05" fill="#3a414a"/><use xlink:href="#g" transform="matrix(1,0,0,1,3069.1397569444453,560.5781250000001) translate(0 17.22222222222222)"/><use xlink:href="#h" transform="matrix(1,0,0,1,3069.1397569444453,560.5781250000001) translate(104.73958333333331 17.22222222222222)"/><path d="M3100.47 204.5h-.94v-5.24h.94zm0-10.5h-.94v-10.5h.94zm0-15.74h-.94v-10.5h.94zm0-15.75h-.94V152h.94zm0-15.75h-.94v-10.5h.94zm0-15.75h-.94v-10.25h.94zm0-31.75h-.94v-9.83h.94zm0-14.98h-.94v-10.3h.94zm0-15.43h-.94v-10.3h.94zm0-15.44h-.94V43.1h.94zm0-15.43h-.94v-10.3h.94zm0-15.44h-.94V17.4h.94z" stroke="#3a414a" stroke-width=".05" fill="#3a414a"/><path d="M3100 218l-7.5-13h15z" fill="#3a414a"/><path d="M3100 218.95l-8.32-14.4 16.64-.02zm-6.68-13.46l6.68 11.55 6.68-11.56z" stroke="#3a414a" stroke-width=".05" fill="#3a414a"/><path d="M3104.64 16.9h-9.28L3100 2.6z" fill="#3a414a"/><path d="M3105.3 17.36h-10.6l5.3-16.28zm-9.28-.95h7.96L3100 4.17z" stroke="#3a414a" stroke-width=".05" fill="#3a414a"/><use xlink:href="#i" transform="matrix(1,0,0,1,3030.9939236111113,99.24479166666667) translate(0 17.22222222222222)"/><use xlink:href="#j" transform="matrix(1,0,0,1,3030.9939236111113,99.24479166666667) translate(36.94444444444444 17.22222222222222)"/><use xlink:href="#k" transform="matrix(1,0,0,1,3030.9939236111113,99.24479166666667) translate(77.68229166666666 17.22222222222222)"/><path d="M3000-1214a6 6 0 0 1 6-6h188a6 6 0 0 1 6 6v88a6 6 0 0 1-6 6h-188a6 6 0 0 1-6-6z" fill="#fff"/><path d="M3000-1220h200m0 100h-200" stroke="#3a414a" stroke-width="2" fill="#fff"/><use xlink:href="#l" transform="matrix(1,0,0,1,3020.000000000001,-1220) translate(57.26236979166667 58.08376736111111)"/><path d="M3000-314a6 6 0 0 1 6-6h188a6 6 0 0 1 6 6v88a6 6 0 0 1-6 6h-188a6 6 0 0 1-6-6z" fill="#fff"/><path d="M3000-320h200m0 100h-200" stroke="#3a414a" stroke-width="2" fill="#fff"/><use xlink:href="#m" transform="matrix(1,0,0,1,3020.000000000001,-320) translate(17.66276041666667 58.08376736111111)"/><path d="M3000-534a6 6 0 0 1 6-6h188a6 6 0 0 1 6 6v88a6 6 0 0 1-6 6h-188a6 6 0 0 1-6-6z" fill="#fff"/><path d="M3000-540h200m0 100h-200" stroke="#3a414a" stroke-width="2" fill="#fff"/><use xlink:href="#n" transform="matrix(1,0,0,1,3020.000000000001,-540) translate(47.96875000000001 58.08376736111111)"/><path d="M3000-934a6 6 0 0 1 6-6h188a6 6 0 0 1 6 6v88a6 6 0 0 1-6 6h-188a6 6 0 0 1-6-6z" fill="#fff"/><path d="M3000-940h200m0 100h-200" stroke="#3a414a" stroke-width="2" fill="#fff"/><use xlink:href="#o" transform="matrix(1,0,0,1,3020.000000000001,-940) translate(45.54361979166667 58.08376736111111)"/><path d="M1264-1080c8.84 0 16 7.16 16 16v128c0 8.84-7.16 16-16 16h-168c-8.84 0-16-7.16-16-16v-128c0-8.84 7.16-16 16-16z" stroke="#3a414a" stroke-width="2" fill="#fff"/><path d="M1080-1028h200" stroke="#3a414a" stroke-width="2" fill="none"/><use xlink:href="#d" transform="matrix(1,0,0,1,1100,-1080) translate(65.55230034722223 34.083767361111114)"/><use xlink:href="#p" transform="matrix(1,0,0,1,1100,-1018) translate(31.112196180555557 52.083767361111114)"/><use xlink:href="#q" transform="matrix(1,0,0,1,1100,-1018) translate(71.11870659722223 52.083767361111114)"/><path d="M928.48-1009.52H821.46l-.02.12-.2.3-.3.2-.24.04h-39.2v-.95h39.04l.02-.14.2-.3.3-.2.24-.03h107.18zm110.46-.92l.3.2.2.3.02.13h23.16v.94h-23.32l-.24-.03-.3-.2-.2-.3-.02-.13h-63.02v-.95h63.18z" stroke="#3a414a" stroke-width=".05" fill="#3a414a"/><path d="M781.5-1008.86h-.5v-.95h.5z" fill="#3a414a"/><path stroke="#3a414a" stroke-width=".05" fill="#3a414a"/><path d="M1077.38-1009.33l-14.26 4.63v-9.27z" fill="#3a414a"/><path d="M1078.92-1009.33l-16.28 5.3v-10.6zm-15.33 3.98l12.25-3.98-12.26-4z" stroke="#3a414a" stroke-width=".05" fill="#3a414a"/><use xlink:href="#r" transform="matrix(1,0,0,1,928.4756944444445,-1020.7552083333334) translate(0 17.22222222222222)"/><use xlink:href="#s" transform="matrix(1,0,0,1,928.4756944444445,-1020.7552083333334) translate(31.163194444444443 17.22222222222222)"/><path d="M1242.83-1097.38h-.95v-5.55h.95zm0-11.1h-.95v-4.9h.95zm0-26.42h-.95v-1.34h.95zm0-6.9h-.95v-11.1h.95zm10.5-27.73h-4.96l-.88.07-.85.2-.8.34-.74.45-.65.56-.57.65-.45.74-.33.8-.2.84-.07.88v5.53h-.95v-5.57l.08-1 .23-.98.38-.94.53-.87.67-.78.78-.66.86-.53.95-.4 1-.23 1-.07h5zm1746.17 0h-5v-.94h5zm-9.98 0h-9.98v-.94h9.98zm-14.97 0h-9.97v-.94h9.97zm-14.96 0h-10v-.94h10zm-14.98 0h-9.98v-.94h9.98zm-14.97 0h-9.97v-.94h9.97zm-14.96 0h-10v-.94h10zm-14.98 0h-9.98v-.94h9.98zm-14.97 0h-9.97v-.94h9.97zm-14.96 0h-10v-.94h10zm-14.98 0h-9.98v-.94h9.98zm-14.97 0h-9.98v-.94h9.98zm-14.97 0h-9.97v-.94h9.98zm-14.96 0h-9.98v-.94h9.98zm-14.97 0h-9.98v-.94h9.98zm-14.97 0H2770v-.94h9.98zm-14.96 0h-9.98v-.94h9.98zm-14.97 0h-9.98v-.94h9.98zm-14.97 0h-9.98v-.94h9.98zm-14.97 0h-9.96v-.94h9.97zm-14.95 0h-9.98v-.94h9.98zm-14.97 0h-9.98v-.94h9.98zm-14.97 0h-9.96v-.94h9.97zm-14.95 0h-9.98v-.94h9.98zm-14.97 0h-9.98v-.94h9.98zm-14.97 0h-9.97v-.94h9.98zm-14.95 0h-9.98v-.94h9.98zm-14.97 0h-9.98v-.94h9.98zm-14.97 0h-9.97v-.94h9.98zm-14.96 0h-9.97v-.94h9.97zm-14.96 0h-9.98v-.94h9.98zm-14.97 0h-9.97v-.94h9.98zm-14.96 0h-9.97v-.94h9.97zm-14.96 0h-9.98v-.94h9.98zm-14.97 0h-9.97v-.94h9.98zm-14.96 0h-9.98v-.94h9.98zm-14.96 0h-9.98v-.94h9.98zm-14.97 0h-9.97v-.94h9.98zm-14.96 0h-9.98v-.94h9.98zm-14.97 0h-9.97v-.94h9.97zm-14.96 0h-9.97v-.94h9.98zm-14.96 0h-9.98v-.94h9.98zm-14.97 0h-9.97v-.94h9.97zm-14.96 0h-9.97v-.94h9.98zm-14.96 0h-9.98v-.94h9.98zm-14.97 0H2321v-.94h9.97zm-14.97 0h-9.97v-.94h9.97zm-14.96 0h-9.98v-.94h9.98zm-14.97 0h-9.98v-.94h9.97zm-14.97 0h-9.97v-.94h9.97zm-14.96 0h-9.98v-.94h9.98zm-14.97 0h-9.98v-.94h9.97zm-14.97 0h-9.98v-.94h9.98zm-14.96 0h-9.98v-.94h9.97zm-14.97 0h-9.98v-.94h9.97zm-14.97 0h-9.98v-.94h9.98zm-14.97 0h-9.97v-.94h9.97zm-14.96 0h-9.98v-.94h9.97zm-14.97 0h-9.98v-.94h9.98zm-14.97 0h-9.98v-.94h9.98zm-14.96 0h-9.98v-.94h9.97zm-14.97 0h-9.98v-.94h9.98zm-14.97 0h-9.98v-.94h9.98zm-14.97 0h-9.97v-.94h9.96zm-14.96 0h-9.98v-.94h9.98zm-14.97 0h-9.98v-.94h9.98zm-14.97 0h-9.98v-.94h9.98zm-14.96 0h-9.98v-.94h9.98zm-14.97 0h-9.98v-.94h9.98zm-14.97 0h-9.98v-.94h9.98zm-14.96 0h-9.98v-.94h9.98zm-14.97 0h-9.98v-.94h9.98zm-14.97 0h-9.98v-.94h9.98zm-14.97 0h-9.98v-.94h9.97zm-14.97 0h-9.98v-.94h9.98zm-14.97 0h-9.98v-.94h9.98zm-14.97 0h-10v-.94h10zm-14.97 0h-9.98v-.94h9.98zm-14.97 0h-9.98v-.94h9.98zm-14.97 0h-10v-.94h10zm-14.98 0h-9.97v-.94h9.97zm-14.96 0h-9.98v-.94h9.98zm-14.97 0h-10v-.94h10zm-14.98 0h-9.98v-.94h9.98zm-14.96 0h-9.98v-.94h9.98zm-14.97 0h-10v-.94h10zm-14.98 0h-9.98v-.94h9.98zm-14.96 0h-9.98v-.94h9.97zm-14.97 0h-10v-.94h10zm-14.98 0h-9.98v-.94h9.98zm-14.97 0h-9.97v-.94h9.97zm-14.96 0h-10v-.94h10zm-14.98 0h-9.98v-.94h9.98zm-14.97 0h-9.98v-.94h9.98zm-14.96 0h-10v-.94h10zm-14.98 0h-9.98v-.94h9.98zm-14.97 0h-9.98v-.94h9.98zm-14.97 0h-9.97v-.94h9.98zm-14.96 0h-9.98v-.94h9.98zm-14.97 0h-9.98v-.94h9.98zm-14.97 0h-9.97v-.94h9.98zm-14.96 0h-9.98v-.94h9.98zm-14.97 0h-9.98v-.94h9.98zm-14.97 0h-9.98v-.94h9.98zm-14.97 0h-9.96v-.94h9.97zm-14.95 0h-9.98v-.94h9.98zm-14.97 0H1408v-.94h9.98zm-14.97 0h-9.96v-.94h9.97zm-14.95 0h-9.98v-.94h9.98zm-14.97 0h-9.98v-.94h9.98zm-14.97 0h-9.97v-.94h9.98zm-14.95 0h-9.98v-.94h9.97zm-14.97 0h-9.98v-.94h9.98zm-14.97 0h-9.97v-.94h9.98zm-14.96 0h-9.97v-.94h9.97zm-14.96 0h-9.98v-.94h9.98zm-14.97 0h-9.97v-.94h9.98z" stroke="#3a414a" stroke-width=".05" fill="#3a414a"/><path d="M3000-1169.53h-.5v-.94h.5z" fill="#3a414a"/><path stroke="#3a414a" stroke-width=".05" fill="#3a414a"/><path d="M1242.35-1082.62l-4.63-14.26h9.27z" fill="#3a414a"/><path d="M1242.35-1081.08l-5.28-16.28h10.57zm-3.98-15.33l3.98 12.25 4-12.26z" stroke="#3a414a" stroke-width=".05" fill="#3a414a"/><use xlink:href="#t" transform="matrix(1,0,0,1,1188.7559301048136,-1134.898430315405) translate(0 17.22222222222222)"/><use xlink:href="#u" transform="matrix(1,0,0,1,1188.7559301048136,-1134.898430315405) translate(68.75 17.22222222222222)"/><path d="M932.85-969.52H797.38v-.96h135.47zm145.65 0h-86v-.96h86z" stroke="#3a414a" stroke-width=".05" fill="#3a414a"/><path d="M1079-969.52h-.5v-.96h.5z" fill="#3a414a"/><path stroke="#3a414a" stroke-width=".05" fill="#3a414a"/><path d="M796.88-965.37L782.62-970l14.26-4.63z" fill="#3a414a"/><path d="M797.36-964.7l-16.28-5.3 16.28-5.3zm-13.2-5.3l12.25 3.98v-7.96z" stroke="#3a414a" stroke-width=".05" fill="#3a414a"/><use xlink:href="#r" transform="matrix(1,0,0,1,932.8446180555555,-980.7552083333334) translate(0 17.22222222222222)"/><use xlink:href="#v" transform="matrix(1,0,0,1,932.8446180555555,-980.7552083333334) translate(31.163194444444443 17.22222222222222)"/><path d="M3000-754a6 6 0 0 1 6-6h188a6 6 0 0 1 6 6v88a6 6 0 0 1-6 6h-188a6 6 0 0 1-6-6z" fill="#fff"/><path d="M3000-760h200m0 100h-200" stroke="#3a414a" stroke-width="2" fill="#fff"/><use xlink:href="#w" transform="matrix(1,0,0,1,3020.000000000001,-760) translate(4.8263888888888715 58.08376736111111)"/><path d="M2684-1080c8.84 0 16 7.16 16 16v128c0 8.84-7.16 16-16 16h-168c-8.84 0-16-7.16-16-16v-128c0-8.84 7.16-16 16-16z" stroke="#3a414a" stroke-width="2" fill="#fff"/><path d="M2500-1028h200" stroke="#3a414a" stroke-width="2" fill="none"/><use xlink:href="#x" transform="matrix(1,0,0,1,2520,-1080) translate(63.268229166666664 34.083767361111114)"/><use xlink:href="#p" transform="matrix(1,0,0,1,2520,-1018) translate(39.32074652777778 52.083767361111114)"/><use xlink:href="#y" transform="matrix(1,0,0,1,2520,-1018) translate(79.32725694444444 52.083767361111114)"/><path d="M1664-1080c8.84 0 16 7.16 16 16v128c0 8.84-7.16 16-16 16h-168c-8.84 0-16-7.16-16-16v-128c0-8.84 7.16-16 16-16z" stroke="#3a414a" stroke-width="2" fill="#fff"/><path d="M1480-1028h200" stroke="#3a414a" stroke-width="2" fill="none"/><use xlink:href="#z" transform="matrix(1,0,0,1,1500,-1080) translate(63.29535590277778 34.083767361111114)"/><use xlink:href="#A" transform="matrix(1,0,0,1,1500,-1018) translate(5.868055555555557 52.083767361111114)"/><use xlink:href="#B" transform="matrix(1,0,0,1,1500,-1018) translate(107.94053819444444 52.083767361111114)"/><path d="M2999.5-269.52h-5.58v-.96h5.58zm-11.17 0h-11.16v-.96h11.16zm-27.86-6.5l.08.88.2.85.33.8.45.75.56.66.65.57.74.45.8.33.84.2.88.07h5.56v.96h-5.6l-1-.08-.98-.24-.94-.4-.87-.52-.78-.66-.66-.77-.53-.86-.4-.94-.23-1-.07-.98v-5.06h.94zm0-10.07h-.94v-10.07h.94zm0-15.12h-.94v-10.08h.94zm0-15.13h-.94v-10.08h.94zm0-15.13h-.94v-10.08h.94zm0-15.13h-.94v-10.1h.94zm0-15.14h-.94v-10.1h.94zm0-15.13h-.94v-10.1h.94zm0-15.13h-.94v-10.1h.94zm0-15.13h-.94v-10.1h.94zm0-15.13h-.94v-10.1h.94zm0-15.13h-.94v-10.08h.94zm0-15.12h-.94v-10.1h.94zm0-15.13h-.94v-10.1h.94zm0-15.13h-.94v-10.1h.94zm0-15.13h-.94V-508h.94zm0-15.14h-.94v-10.1h.94zm0-15.13h-.94v-10.1h.94zm0-15.13h-.94v-10.1h.94zm0-15.13h-.94v-10.1h.94zm0-15.14h-.94v-10.08h.94zm0-15.13h-.94v-10.08h.94zm0-15.13h-.94v-10.08h.94zM2955-630.4l1 .24.94.4.87.52.78.66.66.77.53.86.4.94.23 1 .07.98v5.06h-.94v-5.02l-.07-.88-.2-.85-.34-.8-.45-.75-.56-.66-.65-.57-.74-.45-.8-.33-.84-.2-.88-.07h-5v-.96h5.04zm-11.02.88h-10.02v-.96h10.02zm-15.03 0h-10.03v-.96h10.03zm-15.04 0h-10v-.96h10zm-15.02 0h-10.02v-.96h10.02zm-15.03 0h-10.03v-.96h10.03zm-15.04 0h-10v-.96h10zm-15.02 0h-10.02v-.96h10.02zm-15.03 0h-10.03v-.96h10.03zm-15.04 0h-10v-.96h10zm-15.02 0h-10.02v-.96h10.02zm-15.03 0h-10.02v-.96h10.02zm-15.04 0h-10v-.96h10zm-15.02 0h-10.02v-.96h10.02zm-15.03 0h-10.02v-.96h10.02zm-15.03 0h-10.03v-.96h10.02zm-15.04 0h-10.02v-.96h10.02zm-15.03 0h-10.02v-.96h10.02zm-15.03 0h-10.02v-.96h10.02zm-15.03 0h-10.04v-.96h10.03zm-15.05 0h-10.02v-.96h10.02zm-15.03 0h-10.02v-.96h10.02zm-15.03 0h-10.04v-.96h10.03zm-15.05 0h-10.02v-.96h10.02zm-15.03 0h-10.02v-.96h10.02zm-15.03 0h-10.03v-.96h10.02zm-15.05 0h-10.02v-.96h10.02zm-15.03 0h-10.02v-.96h10.02zm-15.03 0h-10.03v-.96h10.02zm-15.05 0h-10.02v-.96h10.02zm-15.03 0H2498v-.96h10.02zm-15.03 0h-10.03v-.96H2493zm-15.04 0h-10.03v-.96h10.03zm-15.04 0h-10.02v-.96h10.02zm-15.03 0h-10.03v-.96h10.02zm-15.04 0h-10.03v-.96h10.03zm-15.04 0h-10.02v-.96h10.02zm-15.03 0h-10.03v-.96h10.02zm-15.04 0h-10.02v-.96h10.02zm-15.04 0h-10.02v-.96h10.03zm-15.03 0h-10.03v-.96h10.02zm-15.04 0h-10.02v-.96h10.02zm-15.03 0h-10.03v-.96h10.03zm-15.04 0h-10.03v-.96h10.02zm-15.04 0h-10.02v-.96h10.02zm-15.03 0h-10.02v-.96h10.03zm-15.04 0h-10.03v-.96h10.03zm-15.04 0h-10.02v-.96h10.02zm-15.03 0h-10.02v-.96h10.03zm-15.03 0h-10.03v-.96h10.03zm-15.04 0h-10.02v-.96h10.02zm-15.03 0h-10.02v-.96h10.03zm-15.03 0h-10.03v-.96h10.03zm-15.04 0h-10.02v-.96h10.02zm-15.03 0h-10.02v-.96h10.03zm-15.03 0h-10.02v-.96h10.02zm-15.03 0h-10.03v-.96h10.03zm-15.04 0h-10.02v-.96h10.03zm-15.03 0h-10.02v-.96h10.02zm-15.03 0h-10.03v-.96h10.03zm-15.04 0H2047v-.96h10.03zm-15.03 0h-10.02v-.96H2042zm-15.03 0h-10.03v-.96h10.03zm-15.04 0h-10.02v-.96h10.03zm-15.03 0h-10.02v-.96h10.02zm-15.03 0h-10.02v-.96h10.02zm-15.03 0h-10.03v-.96h10.04zm-15.04 0h-10.02v-.96h10.02zm-15.03 0h-10.02v-.96h10.02zm-15.03 0h-10.03v-.96h10.04zm-15.04 0h-10.02v-.96h10.02zm-15.03 0h-10.02v-.96h10.02zm-15.03 0h-10.03l.02-.96h10.02zm-15.04 0h-10.02v-.96h10.02zm-15.03 0h-10.02v-.96h10.02zm-15.03 0h-10.02v-.96h10.02zm-15.03 0h-10.02v-.96h10.03zm-15.03 0h-10.02v-.96h10.02zm-15.03 0h-10.02v-.96h10.02zm-15.03 0h-10.02v-.96h10.03zm-15.03 0h-10.02v-.96h10.02zm-15.03 0h-10.02v-.96h10.02zm-15.03 0h-10v-.96h10zm-15.02 0h-10.03v-.96h10.03zm-15.04 0h-10.02v-.96h10.02zm-15.03 0h-10v-.96h10zm-15.02 0h-10.03v-.96h10.03zm-15.04 0h-10.02v-.96h10.02zm-15.03 0h-10v-.96h10zm-15.02 0h-10.02v-.96h10.02zm-15.04 0h-10.02v-.96h10.02zm-25.57-6.5l.07.88.2.85.34.8.45.75.56.66.65.57.74.45.8.33.84.2.88.07h5v.96h-5.04l-1-.08-.98-.24-.94-.4-.87-.52-.78-.66-.66-.77-.53-.86-.4-.94-.23-1-.07-.98v-4.96h.94zm0-9.86h-.94v-9.87h.94zm0-14.8h-.94v-9.88h.94zm0-14.82h-.94v-9.87h.94zm0-14.8h-.94v-9.88h.94zm0-14.82h-.94V-715h.94zm0-14.8h-.94v-9.9h.94zm0-14.83h-.94v-9.87h.94zm0-14.8h-.94v-9.88h.94zm0-14.82h-.94v-9.88h.94zm0-14.8h-.94v-9.9h.94zm0-14.83h-.94v-9.87h.94zm0-14.8h-.94v-9.88h.94zm0-14.82h-.94v-.47h.94zm0-21.98h-.94v-2.7h.94zm0-7.64h-.94v-9.88h.94zm0-14.8h-.94v-9.9h.94zm0-14.83h-.94v-9.87h.94zm0-14.8h-.94v-4.95h.94z" stroke="#3a414a" stroke-width=".05" fill="#3a414a"/><path d="M3000-269.52h-.5v-.96h.5z" fill="#3a414a"/><path stroke="#3a414a" stroke-width=".05" fill="#3a414a"/><path d="M1584.63-903.12h-9.27l4.64-14.26z" fill="#3a414a"/><path d="M1585.3-902.64h-10.6l5.3-16.28zm-9.28-.95h7.96l-3.98-12.25z" stroke="#3a414a" stroke-width=".05" fill="#3a414a"/><use xlink:href="#C" transform="matrix(1,0,0,1,1515.8333333333333,-845.6002060093136) translate(0 17.22222222222222)"/><use xlink:href="#D" transform="matrix(1,0,0,1,1515.8333333333333,-845.6002060093136) translate(18.984375 17.22222222222222)"/><use xlink:href="#E" transform="matrix(1,0,0,1,1515.8333333333333,-845.6002060093136) translate(45.16493055555556 17.22222222222222)"/><path d="M1462.62-1030.2h-23.16l-.02.14-.2.3-.17.12v-1.47l.23-.04h23.32zm-141.7-.9v1.46l-.17-.1-.2-.32v-.13h-39.05v-.94h39.2z" stroke="#3a414a" stroke-width=".05" fill="#3a414a"/><path d="M1281.5-1030.2h-.5v-.94h.5z" fill="#3a414a"/><path stroke="#3a414a" stroke-width=".05" fill="#3a414a"/><path d="M1477.38-1030.67l-14.26 4.64v-9.27z" fill="#3a414a"/><path d="M1478.92-1030.67l-16.28 5.3v-10.6zm-15.33 4l12.25-4-12.26-3.98z" stroke="#3a414a" stroke-width=".05" fill="#3a414a"/><use xlink:href="#F" transform="matrix(1,0,0,1,1320.9288194444443,-1040.7552083333333) translate(0 17.22222222222222)"/><use xlink:href="#G" transform="matrix(1,0,0,1,1320.9288194444443,-1040.7552083333333) translate(36.232638888888886 17.22222222222222)"/><use xlink:href="#H" transform="matrix(1,0,0,1,1320.9288194444443,-1040.7552083333333) translate(75.41666666666666 17.22222222222222)"/><use xlink:href="#I" transform="matrix(1,0,0,1,1320.9288194444443,-1040.7552083333333) translate(89.94791666666666 17.22222222222222)"/><path d="M1314.85-999.52h-17.47v-.96h17.47zm163.65 0h-33.35v-.96h33.35z" stroke="#3a414a" stroke-width=".05" fill="#3a414a"/><path d="M1479-999.52h-.5v-.96h.5z" fill="#3a414a"/><path stroke="#3a414a" stroke-width=".05" fill="#3a414a"/><path d="M1296.88-995.37l-14.26-4.63 14.26-4.63z" fill="#3a414a"/><path d="M1297.36-994.7l-16.28-5.3 16.28-5.3zm-13.2-5.3l12.25 3.98v-7.96z" stroke="#3a414a" stroke-width=".05" fill="#3a414a"/><use xlink:href="#J" transform="matrix(1,0,0,1,1314.8480902777778,-1010.7552083333334) translate(0 17.22222222222222)"/><use xlink:href="#G" transform="matrix(1,0,0,1,1314.8480902777778,-1010.7552083333334) translate(48.39409722222222 17.22222222222222)"/><use xlink:href="#H" transform="matrix(1,0,0,1,1314.8480902777778,-1010.7552083333334) translate(87.578125 17.22222222222222)"/><use xlink:href="#I" transform="matrix(1,0,0,1,1314.8480902777778,-1010.7552083333334) translate(102.109375 17.22222222222222)"/><path d="M2224-1080c8.84 0 16 7.16 16 16v128c0 8.84-7.16 16-16 16h-168c-8.84 0-16-7.16-16-16v-128c0-8.84 7.16-16 16-16z" stroke="#3a414a" stroke-width="2" fill="#fff"/><path d="M2040-1028h200" stroke="#3a414a" stroke-width="2" fill="none"/><use xlink:href="#K" transform="matrix(1,0,0,1,2060,-1080) translate(63.45811631944444 34.083767361111114)"/><use xlink:href="#A" transform="matrix(1,0,0,1,2060,-1018) translate(12.085503472222229 52.083767361111114)"/><use xlink:href="#L" transform="matrix(1,0,0,1,2060,-1018) translate(114.15798611111111 52.083767361111114)"/><path d="M1717.88-1040.86h-36.38v-.95h36.38zm304.74 0h-175.96v-.95h175.96z" stroke="#3a414a" stroke-width=".05" fill="#3a414a"/><path d="M1681.5-1040.86h-.5v-.95h.5z" fill="#3a414a"/><path stroke="#3a414a" stroke-width=".05" fill="#3a414a"/><path d="M2037.38-1041.33l-14.26 4.63v-9.27z" fill="#3a414a"/><path d="M2038.92-1041.33l-16.28 5.3v-10.6zm-15.33 3.98l12.25-3.98-12.26-4z" stroke="#3a414a" stroke-width=".05" fill="#3a414a"/><use xlink:href="#M" transform="matrix(1,0,0,1,1717.8767520387362,-1052.0885416666665) translate(0 17.22222222222222)"/><use xlink:href="#N" transform="matrix(1,0,0,1,1717.8767520387362,-1052.0885416666665) translate(32.404513888888886 17.22222222222222)"/><use xlink:href="#O" transform="matrix(1,0,0,1,1717.8767520387362,-1052.0885416666665) translate(51.388888888888886 17.22222222222222)"/><path d="M1803.26-999.52h-105.88v-.96h105.88zm235.24 0h-73.76v-.96h73.76z" stroke="#3a414a" stroke-width=".05" fill="#3a414a"/><path d="M2039-999.52h-.5v-.96h.5z" fill="#3a414a"/><path stroke="#3a414a" stroke-width=".05" fill="#3a414a"/><path d="M1696.88-995.37l-14.26-4.63 14.26-4.63z" fill="#3a414a"/><path d="M1697.36-994.7l-16.28-5.3 16.28-5.3zm-13.2-5.3l12.25 3.98v-7.96z" stroke="#3a414a" stroke-width=".05" fill="#3a414a"/><use xlink:href="#M" transform="matrix(1,0,0,1,1803.2621527777778,-1010.7552083333334) translate(0 17.22222222222222)"/><use xlink:href="#N" transform="matrix(1,0,0,1,1803.2621527777778,-1010.7552083333334) translate(32.404513888888886 17.22222222222222)"/><use xlink:href="#P" transform="matrix(1,0,0,1,1803.2621527777778,-1010.7552083333334) translate(51.388888888888886 17.22222222222222)"/><use xlink:href="#O" transform="matrix(1,0,0,1,1803.2621527777778,-1010.7552083333334) translate(84.07986111111111 17.22222222222222)"/><path d="M2960.47-635.98l-.07 1-.24.98-.4.94-.52.87-.66.78-.77.66-.86.53-.94.4-1 .23-.98.08h-5v-.96h4.96l.88-.06.85-.2.8-.34.75-.45.66-.56.57-.65.45-.74.33-.8.2-.84.08-.88v-4.5h.94zm-16.44 6.46h-9.98v-.96h9.97zm-14.97 0h-9.97v-.96h9.96zm-14.96 0h-9.98v-.96h9.98zm-14.96 0h-9.98v-.96h9.98zm-14.97 0h-9.97v-.96h9.97zm-14.96 0h-9.96v-.96h9.97zm-14.95 0h-9.98v-.96h9.98zm-14.97 0h-9.97v-.96h9.98zm-14.96 0h-9.97v-.96h9.97zm-14.96 0h-9.98v-.96h9.98zm-14.97 0h-9.98v-.96h9.97zm-14.97 0h-9.97v-.96h9.97zm-14.96 0h-9.98v-.96h9.97zm-14.96 0h-9.97v-.96h9.98zm-14.96 0h-9.97v-.96h9.97zm-14.96 0h-9.97v-.96h9.98zm-14.96 0h-9.98v-.96h9.98zm-14.97 0h-9.97v-.96h9.97zm-14.96 0h-9.98v-.96h9.97zm-14.97 0h-9.98v-.96h9.98zm-14.97 0h-9.97v-.96h9.96zm-14.96 0h-9.97v-.96h9.97zm-14.96 0h-9.98v-.96h9.98zm-14.96 0h-9.98v-.96h9.98zm-14.97 0h-9.96v-.96h9.97zm-14.95 0h-9.97v-.96h9.97zm-14.96 0h-10v-.96h10zm-14.97 0h-9.98v-.96h9.97zm-14.97 0h-9.97v-.96h9.96zm-14.96 0h-9.98v-.96h9.98zm-14.96 0h-9.98v-.96h9.98zm-14.97 0h-9.97v-.96h9.97zm-14.96 0h-9.96v-.96h9.97zm-14.95 0h-9.98v-.96h9.98zm-14.97 0h-9.97v-.96h9.98zm-14.96 0h-9.97v-.96h9.97zm-14.96 0h-9.98v-.96h9.98zm-14.97 0h-9.98v-.96h9.97zm-14.97 0h-9.97v-.96h9.97zm-14.96 0h-9.98v-.96h9.97zm-14.96 0h-9.97v-.96h9.98zm-14.96 0h-9.97v-.96h9.97zm-14.96 0h-9.97v-.96h9.98zm-14.96 0h-9.98v-.96h9.98zm-14.97 0h-9.97v-.96h9.97zm-14.96 0h-9.98v-.96h9.97zm-14.97 0h-9.98v-.96h9.98zm-14.97 0h-9.97v-.96h9.96zm-14.96 0h-9.97v-.96h9.97zm-14.96 0h-9.98v-.96h9.98zm-14.96 0h-9.98v-.96h9.98zm-14.97 0h-9.96v-.96h9.97zm-14.95 0h-9.97v-.96h9.97zm-25.47-6.5l.06.88.2.85.34.8.45.75.56.66.65.57.74.45.8.33.84.2.88.07h4.97v.96h-5.02l-1-.08-.98-.24-.94-.4-.87-.52-.78-.66-.66-.77-.53-.86-.4-.94-.23-1-.07-.98v-4.96h.94zm820-9.05h-.95v-9.06h.94zm-820-.8h-.95v-9.88h.94zm820-12.8h-.95v-9.06h.94zm-820-2.02h-.95v-9.86h.94zm820-11.57h-.95v-9.06h.94zm-820-3.23h-.95v-9.87h.94zm820-10.37h-.95v-9.06h.94zm-820-4.44h-.95v-9.88h.94zm831.1-19.23h-5.56l-.88.07-.85.2-.8.34-.75.45-.66.56-.57.65-.45.74-.33.8-.2.84-.08.88v4.5h-.94V-704l.07-1 .24-.98.4-.94.52-.87.66-.78.77-.66.86-.53.94-.4 1-.23.98-.08h5.6zm-831.1 4.4h-.95V-715h.94zm859.02-4.4h-5.58v-.95h5.58zm-11.17 0h-11.16v-.95h11.16zm-847.86-10.4h-.94v-9.88h.94zm0-14.82h-.94v-9.87h.94zm0-14.8h-.94v-9.88h.94zm0-14.82h-.94v-9.88h.94zm0-14.8h-.94v-9.9h.94zm0-14.83h-.94v-9.87h.94zm0-14.8h-.94v-9.88h.94zm0-14.82h-.94v-9.87h.94zm0-14.8h-.94v-1.08h.94zm0-22.6h-.94v-2.1h.94zm0-7.03h-.94v-9.88h.94zm0-14.82h-.94v-9.87h.94zm0-14.8h-.94v-4.95h.94z" stroke="#3a414a" stroke-width=".05" fill="#3a414a"/><path d="M3000-709.52h-.5v-.96h.5z" fill="#3a414a"/><path stroke="#3a414a" stroke-width=".05" fill="#3a414a"/><path d="M2144.64-903.12h-9.28l4.64-14.26z" fill="#3a414a"/><path d="M2145.3-902.64h-10.6l5.3-16.28zm-9.28-.95h7.96l-3.98-12.25z" stroke="#3a414a" stroke-width=".05" fill="#3a414a"/><use xlink:href="#Q" transform="matrix(1,0,0,1,2064.4270833333335,-861.0087305828696) translate(0 17.22222222222222)"/><use xlink:href="#R" transform="matrix(1,0,0,1,2064.4270833333335,-861.0087305828696) translate(98.25520833333333 17.22222222222222)"/><path d="M2329.05-999.52h-87.55v-.96h87.55zm153.57 0h-71.66v-.96h71.66z" stroke="#3a414a" stroke-width=".05" fill="#3a414a"/><path d="M2241.5-999.52h-.5v-.96h.5z" fill="#3a414a"/><path stroke="#3a414a" stroke-width=".05" fill="#3a414a"/><path d="M2497.38-1000l-14.26 4.63v-9.26z" fill="#3a414a"/><path d="M2498.92-1000l-16.28 5.3v-10.6zm-15.33 3.98l12.24-3.98-12.25-3.98z" stroke="#3a414a" stroke-width=".05" fill="#3a414a"/><use xlink:href="#S" transform="matrix(1,0,0,1,2329.0451388888887,-1010.7552083333334) translate(0 17.22222222222222)"/><use xlink:href="#T" transform="matrix(1,0,0,1,2329.0451388888887,-1010.7552083333334) translate(39.18402777777778 17.22222222222222)"/><use xlink:href="#I" transform="matrix(1,0,0,1,2329.0451388888887,-1010.7552083333334) translate(53.71527777777778 17.22222222222222)"/><path d="M2999.5-49.52h-5.07v-.95h5.07zm-10.13 0h-10.13v-.95h10.13zm-15.2 0h-10.12v-.95h10.13zm-15.2 0h-10.12v-.95h10.13zm-15.18 0h-10.14v-.95h10.13zm-15.2 0h-10.14v-.95h10.13zm-15.2 0h-10.13v-.95h10.13zm-15.2 0h-10.13v-.95h10.13zm-15.2 0h-10.12v-.95H2883zm-15.18 0h-10.14v-.95h10.14zm-15.2 0h-10.13v-.95h10.12zm-15.2 0h-10.12v-.95h10.13zm-15.2 0h-10.12v-.95h10.13zm-15.18 0h-10.13v-.95h10.14zm-15.2 0h-10.13v-.95h10.14zm-15.2 0h-10.12v-.95h10.13zm-15.2 0h-10.12v-.95h10.13zm-15.18 0h-10.13v-.95h10.13zm-25.8-6.5l.08.88.2.85.34.8.45.75.56.66.65.57.74.45.8.33.84.2.88.07h5.05v.95h-5.1l-.98-.07-1-.24-.94-.4-.87-.52-.78-.66-.66-.77-.53-.86-.4-.94-.23-1-.07-.98v-5h.94zm0-9.95h-.93v-9.96h.94zm0-14.94h-.93v-9.98h.94zm0-14.96h-.93v-9.97h.94zm0-14.95h-.93v-9.97h.94zm0-14.95h-.93v-9.97h.94zm0-14.95h-.93v-9.97h.94zm0-14.95h-.93v-9.96h.94zm0-14.95h-.93v-9.96h.94zm0-14.94h-.93v-9.97h.94zm0-14.95h-.93v-9.96h.94zm0-14.94h-.93v-9.96h.94zm0-14.95h-.93v-9.95h.94zm0-14.93h-.93v-9.97h.94zm0-14.95h-.93v-9.97h.94zm0-14.95h-.93v-9.96h.94zm0-14.94h-.93v-9.97h.94zm0-14.95h-.93v-9.97h.94zm0-14.95h-.93v-9.97h.94zm0-14.95h-.93v-9.96h.94zm0-14.94h-.93v-9.97h.94zm0-14.95h-.93v-9.98h.94zm0-14.96h-.93v-9.96h.94zm0-14.95h-.93v-9.97h.94zm0-14.95h-.93v-9.97h.94zm0-14.95h-.93v-9.97h.94zm0-14.95h-.93v-9.96h.94zm0-14.95h-.93v-9.96h.94zm0-14.94h-.93v-9.97h.94zm0-14.95h-.93v-9.96h.94zm0-14.94h-.93v-9.96h.94zm0-14.95h-.93v-9.95h.94zm0-14.93h-.93v-9.97h.94zm0-14.95h-.93v-9.97h.94zm0-14.95h-.93v-9.96h.94zm0-14.94h-.93v-9.97h.94zm0-14.95h-.93v-9.97h.94zm0-14.95h-.93v-9.96h.94zm-5.45-26.33l1 .24.94.4.87.52.78.66.66.77.53.86.4.94.23 1 .07.98v5h-.94v-4.96l-.07-.88-.2-.85-.34-.8-.45-.75-.56-.66-.65-.57-.74-.45-.8-.33-.84-.2-.88-.07h-5.12v-.96h5.16zm-11.3.88h-10.27v-.96h10.28zm-15.4 0H2678v-.96h10.3zm-15.44 0h-10.3v-.96h10.3zm-15.43 0h-10.3v-.96h10.3zm-15.43 0h-10.3v-.96h10.3zm-15.43 0h-10.28v-.96h10.27zm-26.1-6.5l.07.88.2.85.34.8.45.75.56.66.65.57.74.45.8.33.84.2.88.07h5.12v.96h-5.16l-1-.08-.98-.24-.94-.4-.87-.52-.78-.66-.66-.77-.53-.86-.4-.94-.23-1-.07-.98v-4.96h.94zm0-9.86h-.94v-9.87h.94zm0-14.8h-.94v-9.88h.94zm0-14.82h-.94v-9.87h.94zm0-14.8h-.94v-9.88h.94zm0-14.82h-.94V-715h.94zm0-14.8h-.94v-9.9h.94zm0-14.83h-.94v-9.87h.94zm0-14.8h-.94v-9.88h.94zm0-14.82h-.94v-9.88h.94zm0-14.8h-.94v-9.9h.94zm0-14.83h-.94v-9.87h.94zm0-14.8h-.94v-9.88h.94zm0-14.82h-.94v-9.87h.94zm0-14.8h-.94v-5.42h.94zm0-29.63h-.94v-9.88h.94zm0-14.82h-.94v-9.87h.94zm0-14.8h-.94v-4.95h.94z" stroke="#3a414a" stroke-width=".05" fill="#3a414a"/><path d="M3000-49.52h-.5v-.95h.5z" fill="#3a414a"/><path stroke="#3a414a" stroke-width=".05" fill="#3a414a"/><path d="M2604.64-903.12h-9.28l4.64-14.26z" fill="#3a414a"/><path d="M2605.3-902.64h-10.6l5.3-16.28zm-9.28-.95h7.96l-3.98-12.25z" stroke="#3a414a" stroke-width=".05" fill="#3a414a"/><use xlink:href="#U" transform="matrix(1,0,0,1,2538.4288194444443,-865.3452497193754) translate(0 17.22222222222222)"/><use xlink:href="#V" transform="matrix(1,0,0,1,2538.4288194444443,-865.3452497193754) translate(41.63194444444444 17.22222222222222)"/><use xlink:href="#W" transform="matrix(1,0,0,1,2538.4288194444443,-865.3452497193754) translate(84.69618055555556 17.22222222222222)"/><path d="M2999.5-889.52h-4.46v-.96h4.46zm-8.92 0h-8.9v-.96h8.9zm-13.37 0h-8.9v-.96h8.9zm-13.37 0h-8.9v-.96h8.9zm-23.36-6.5l.07.88.2.85.34.8.45.75.56.66.65.57.74.45.8.33.84.2.88.07h4.44v.96h-4.48l-1-.08-.98-.24-.94-.4-.87-.52-.78-.66-.66-.77-.53-.86-.4-.94-.23-1-.07-.98v-4.7h.94zm0-9.3h-.94v-9.35h.94zm0-14h-.94v-9.35h.94zm0-14h-.94v-9.35h.94zm0-14h-.94v-9.35h.94zm0-14h-.94v-9.35h.94zm0-14h-.94v-9.35h.94zm-5.46-25.08l1 .24.94.4.87.52.78.66.66.77.53.86.4.94.23 1 .07.98v4.7h-.94V-994l-.07-.88-.2-.85-.34-.8-.45-.75-.56-.66-.65-.57-.74-.45-.8-.33-.84-.2-.88-.07h-5.14v-.96h5.18zm-11.32.88h-10.3v-.96h10.3zm-15.47 0h-10.3v-.96h10.3zm-158.9 0h-6.13v-.96h6.14zm-11.3 0h-10.3v-.96h10.3zm-15.46 0h-5.16v-.96h5.16z" stroke="#3a414a" stroke-width=".05" fill="#3a414a"/><path d="M3000-889.52h-.5v-.96h.5z" fill="#3a414a"/><path stroke="#3a414a" stroke-width=".05" fill="#3a414a"/><path d="M2716.88-995.37l-14.26-4.63 14.26-4.63z" fill="#3a414a"/><path d="M2717.36-994.7l-16.28-5.3 16.28-5.3zm-13.2-5.3l12.25 3.98v-7.96z" stroke="#3a414a" stroke-width=".05" fill="#3a414a"/><use xlink:href="#U" transform="matrix(1,0,0,1,2749.3140625,-1010.7552083333334) translate(0 17.22222222222222)"/><use xlink:href="#X" transform="matrix(1,0,0,1,2749.3140625,-1010.7552083333334) translate(41.63194444444444 17.22222222222222)"/><use xlink:href="#Y" transform="matrix(1,0,0,1,2749.3140625,-1010.7552083333334) translate(107.72569444444444 17.22222222222222)"/><path d="M3030.88 658.5h-.95V530.75h.95zm0-149.25h-.95V397.38h.95z" stroke="#3a414a" stroke-width=".05" fill="#3a414a"/><path d="M3030.88 659h-.95v-.5h.95z" fill="#3a414a"/><path stroke="#3a414a" stroke-width=".05" fill="#3a414a"/><path d="M3035.03 396.88h-9.27l4.64-14.26z" fill="#3a414a"/><path d="M3035.7 397.36h-10.6l5.3-16.28zm-9.28-.95h7.96l-3.98-12.25z" stroke="#3a414a" stroke-width=".05" fill="#3a414a"/><use xlink:href="#Z" transform="matrix(1,0,0,1,2970.4911458333336,509.2447916666667) translate(0 17.22222222222222)"/><use xlink:href="#aa" transform="matrix(1,0,0,1,2970.4911458333336,509.2447916666667) translate(59.487847222222214 17.22222222222222)"/><path d="M4250-670c5.52 0 10 4.48 10 10v80c0 5.52-4.48 10-10 10h-180c-5.52 0-10-4.48-10-10v-80c0-5.52 4.48-10 10-10z" stroke="#3a414a" stroke-width="2" fill="#fff"/><use xlink:href="#n" transform="matrix(1,0,0,1,4080,-670) translate(47.96875000000001 58.08376736111111)"/><path d="M3884-700c8.84 0 16 7.16 16 16v128c0 8.84-7.16 16-16 16h-168c-8.84 0-16-7.16-16-16v-128c0-8.84 7.16-16 16-16z" stroke="#3a414a" stroke-width="2" fill="#fff"/><path d="M3700-648h200" stroke="#3a414a" stroke-width="2" fill="none"/><use xlink:href="#d" transform="matrix(1,0,0,1,3720,-700) translate(65.55230034722223 34.083767361111114)"/><use xlink:href="#ab" transform="matrix(1,0,0,1,3720,-638) translate(15.9592013888889 52.083767361111114)"/><use xlink:href="#q" transform="matrix(1,0,0,1,3720,-638) translate(86.27170138888889 52.083767361111114)"/><path d="M3947.48-648.52h-30.1v-.96h30.1zm111.02 0h-63.98v-.96h63.98z" stroke="#3a414a" stroke-width=".05" fill="#3a414a"/><path d="M4059-648.52h-.5v-.96h.5z" fill="#3a414a"/><path stroke="#3a414a" stroke-width=".05" fill="#3a414a"/><path d="M3916.88-644.37l-14.26-4.63 14.26-4.63z" fill="#3a414a"/><path d="M3917.36-643.7l-16.28-5.3 16.28-5.3zm-13.2-5.3l12.25 3.98v-7.96z" stroke="#3a414a" stroke-width=".05" fill="#3a414a"/><use xlink:href="#r" transform="matrix(1,0,0,1,3947.4756944444443,-659.7552083333334) translate(0 17.22222222222222)"/><use xlink:href="#s" transform="matrix(1,0,0,1,3947.4756944444443,-659.7552083333334) translate(31.163194444444443 17.22222222222222)"/><path d="M3936.3-591.52h-34.8v-.96h34.8zm106.32 0h-44.93v-.96h44.92z" stroke="#3a414a" stroke-width=".05" fill="#3a414a"/><path d="M3901.5-591.52h-.5v-.96h.5z" fill="#3a414a"/><path stroke="#3a414a" stroke-width=".05" fill="#3a414a"/><path d="M4057.38-592l-14.26 4.63v-9.26z" fill="#3a414a"/><path d="M4058.92-592l-16.28 5.3v-10.6zm-15.33 3.98l12.24-3.98-12.25-3.98z" stroke="#3a414a" stroke-width=".05" fill="#3a414a"/><use xlink:href="#ac" transform="matrix(1,0,0,1,3936.3142361111113,-602.7552083333334) translate(0 17.22222222222222)"/><path d="M3281.47-626.02l.07.88.2.85.34.8.45.75.56.66.65.57.74.45.8.33.84.2.88.07h5.06v.96h-5.1l-1-.08-.98-.24-.94-.4-.87-.52-.78-.66-.66-.77-.53-.86-.4-.94-.23-1-.07-.98v-5.22h.94zm25.85 6.5h-10.16v-.96h10.16zm15.24 0h-10.16v-.96h10.16zm15.24 0h-10.16v-.96h10.16zm15.24 0h-10.16v-.96h10.16zm15.24 0h-10.16v-.96h10.16zm15.24 0h-10.16v-.96h10.16zm15.24 0h-10.16v-.96h10.16zm15.25 0h-10.15v-.96H3414zm15.25 0h-10.16v-.96h10.15zm15.24 0h-10.17v-.96h10.16zm15.23 0h-10.16v-.96h10.16zm15.24 0h-10.16v-.96h10.17zm15.24 0h-10.15v-.96h10.16zm15.25 0h-10.16v-.96h10.15zm15.24 0h-10.17v-.96h10.16zm15.23 0h-10.16v-.96h10.16zm10.34 0H3541v-.96h5.27zm111.6 0h-10.17v-.96h10.16zm15.23 0h-10.16v-.96h10.16zm15.24 0h-10.16v-.96h10.16zm10.16 0h-5.08v-.96h5.08zm-417.03-16.88h-.94v-10.4h.94zm0-15.6h-.94v-10.4h.94zm0-15.6h-.94V-678h.94zm0-15.6h-.94v-10.4h.94zm-5.46-27.2l1 .24.94.4.87.52.78.66.66.77.53.86.4.94.23 1 .07.98v5.22h-.94v-5.18l-.07-.88-.2-.85-.34-.8-.45-.75-.56-.66-.65-.57-.74-.45-.8-.33-.84-.2-.88-.07h-5.02v-.96h5.06zm-56.47.88h-5.04v-.96h5.03zm15.13 0h-10.1v-.96h10.1zm15.13 0h-10.1v-.96h10.1zm15.1 0h-10.07v-.96h10.1z" stroke="#3a414a" stroke-width=".05" fill="#3a414a"/><path d="M3214-702.5l-13-7.5 13-7.5z" fill="#3a414a"/><path d="M3214.47-701.68l-14.42-8.32 14.4-8.32zm-12.52-8.32l11.57 6.68v-13.36z" stroke="#3a414a" stroke-width=".05" fill="#3a414a"/><path d="M3699-619.52h-.5v-.96h.5z" fill="#3a414a"/><path stroke="#3a414a" stroke-width=".05" fill="#3a414a"/><path d="M3359.5-620h-4.9m-4.9 0h-9.8m-4.9 0h-9.8m-4.9 0h-9.8m-4.9 0h-9.8m-4.9 0h-4.9l-.94.07-.9.22-.88.35-.8.5-.72.6-.6.72-.5.8-.37.88-.23.9-.07.95v4.92m0 4.9v9.85m0 4.9v9.85m0 4.9v9.85m0 4.9v9.85m0 4.9v9.85m0 4.9v9.85m0 4.9v9.85m0 4.9v4.93l-.07.94-.22.9-.35.88-.5.8-.6.72-.72.6-.8.5-.88.37-.9.23-.95.07h-4.96m-4.96 0h-9.92m-4.96 0h-9.9m-4.97 0h-9.92m-4.95 0h-4.96M3359.5-620h.5" stroke="#3a414a" fill="none"/><path d="M3201-490l13-7.5v15z" stroke="#3a414a" fill="#3a414a"/><path d="M3214.5-270h4.95m4.96 0h9.93m4.96 0h9.9m4.96 0h9.92m4.96 0h4.96l.94-.07.9-.22.88-.35.8-.5.72-.6.6-.72.5-.8.37-.88.23-.9.07-.95v-4.9m0-4.9v-9.8m0-4.9v-9.8m0-4.9v-9.8m0-4.88v-9.8m0-4.9v-9.8m0-4.9v-9.8m0-4.9v-9.8m0-4.9v-9.78m0-4.9v-9.8m0-4.9v-9.8m0-4.9v-9.8m0-4.9v-9.8m0-4.88v-9.8m0-4.9v-9.8m0-4.9v-9.8m0-4.9v-9.8m0-4.9v-9.78m0-4.9v-9.8m0-4.9v-9.8m0-4.9v-9.8m0-4.9v-9.8m0-4.9v-9.78m0-4.9v-4.9l.07-.94.22-.9.35-.88.5-.8.6-.72.72-.6.8-.5.88-.37.9-.23.95-.07h5.1m5.1 0h10.2m5.1 0h10.2m5.1 0h10.2m5.1 0h10.2m5.1 0h5.1" stroke="#3a414a" fill="none"/><path d="M3201-270l13-7.5v15z" stroke="#3a414a" fill="#3a414a"/><path d="M3362.5-620h.5M3214.5-50h5.03m5.04 0h10.1m5.03 0h10.1m5.03 0h10.1m5.03 0h5.04l.94-.07.9-.22.88-.35.8-.5.72-.6.6-.72.5-.8.37-.88.23-.9.07-.95v-5.03m0-5.02V-76.1m0-5.04v-10.05m0-5.02v-10.05m0-5.03v-10.05m0-5.03v-10.05m0-5.03v-10.05m0-5.04v-10.06m0-5.02v-10.06m0-5.02v-10.06m0-5.02v-10.06m0-5.03v-10.05m0-5.03V-242m0-5.03v-10.05m0-5.03v-10.06m0-5.03v-10.04m0-5.03v-10.05m0-5.03v-10.05m0-5.03v-10.06m0-5v-10.07m0-5.03v-10.05m0-5.03v-10.05m0-5.03v-10.05m0-5.04v-10.05m0-5.02v-10.05m0-5.03v-10.05m0-5.03v-10.06m0-5.02v-10.06m0-5.02v-10.06m0-5.02v-10.06m0-5.02v-10.06m0-5.03v-10.04m0-5.03v-10.05m0-5.03v-10.05m0-5.03v-10.05m0-5.03v-10.07m0-5.02v-10.05m0-5.02V-614l.07-.94.22-.9.35-.88.5-.8.6-.72.72-.6.8-.5.88-.37.9-.23.95-.07h4.83m4.84 0h9.66m4.84 0h9.66m4.84 0h9.66m4.84 0h9.66m4.84 0h4.83" stroke="#3a414a" fill="none"/><path d="M3201-50l13-7.5v15z" stroke="#3a414a" fill="#3a414a"/><path d="M3359.5-620h.5M3216.38-890h4.8m4.8 0h9.6m4.8 0h9.6m4.82 0h9.6m4.8 0h4.8l.94.07.9.22.88.35.8.5.72.6.6.72.5.8.37.88.23.9.07.95v4.88m0 4.88v9.76m0 4.88v9.76m0 4.88v9.76m0 4.88v9.75m0 4.9v9.74m0 4.88v9.76m0 4.9v9.75m0 4.88v9.76m0 4.87v9.76m0 4.88v9.77m0 4.88v9.76m0 4.9v9.75m0 4.88v9.75m0 4.9v9.74m0 4.88v9.76m0 4.88v9.76m0 4.88v9.76m0 4.88v4.96l.02.07.03.08.04.06.05.05.06.05.07.05.07.03h.08l.08.02" stroke="#3a414a" fill="none"/><path d="M3201.62-890l14.26-4.63v9.26z" stroke="#3a414a" fill="#3a414a"/><path d="M3280.5-620h.5M3214.5-1170h5.03m5.04 0h10.1m5.03 0h10.1m5.03 0h10.1m5.03 0h5.04l.94.07.9.22.88.35.8.5.72.6.6.72.5.8.37.88.23.9.07.95v4.92m0 4.93v9.85m0 4.93v9.85m0 4.92v9.85m0 4.93v9.85m0 4.92v9.85m0 4.93v9.85m0 4.92v9.85m0 4.93v9.85m0 4.92v9.85m0 4.93v9.85m0 4.92v9.85m0 4.93v9.85m0 4.92v9.85m0 4.93v9.85m0 4.92v9.85m0 4.93v9.85m0 4.92v9.86m0 4.93v9.85m0 4.93v9.86m0 4.92v9.85m0 4.93v9.85m0 4.93v5.01l-.02.07-.03.08-.04.07-.05.06-.06.06-.07.04-.08.03-.07.02h-.08" stroke="#3a414a" fill="none"/><path d="M3201-1170l13-7.5v15z" stroke="#3a414a" fill="#3a414a"/><path d="M3280.5-838.44h-.5" stroke="#3a414a" fill="none"/><path d="M3460.47-620.5h-.94v-4.4h.94zm0-8.78h-.94v-8.78h.94zm0-13.16h-.94v-8.78h.94zm10.4-23.08H3466l-.88.06-.85.2-.8.34-.75.45-.66.56-.57.65-.45.74-.33.8-.2.84-.08.88v4.37h-.94v-4.42l.07-1 .24-.98.4-.94.52-.87.66-.78.77-.66.86-.53.94-.4 1-.23.98-.08h4.88zm213.64 0h-4.85v-.96h4.86zm-9.7 0h-9.7v-.96h9.7zm-14.57 0h-9.7v-.96h9.7zm-14.57 0h-9.7v-.96h9.7zm-95.36 0h-1.75v-.96h1.75zm-6.6 0h-9.72v-.96h9.7zm-14.57 0h-9.72v-.96h9.72zm-14.57 0h-9.7v-.96h9.7zm-14.57 0h-9.72v-.96h9.7zm-14.58 0h-9.7v-.96h9.7zm145.68 0h-5.4v-.96h5.4z" stroke="#3a414a" stroke-width=".05" fill="#3a414a"/><path d="M3698-666l-13 7.5v-15z" fill="#3a414a"/><path d="M3698.95-666l-14.4 8.32-.02-16.64zm-13.46 6.68l11.55-6.68-11.57-6.68zM3460.47-620h-.94v-.5h.94z" stroke="#3a414a" stroke-width=".05" fill="#3a414a"/><g><use xlink:href="#i" transform="matrix(1,0,0,1,3550.3046875000005,-676.7552083333333) translate(0 17.22222222222222)"/><use xlink:href="#u" transform="matrix(1,0,0,1,3550.3046875000005,-676.7552083333333) translate(36.94444444444444 17.22222222222222)"/></g><path d="M3465.44-619.52h-4.94v-.96h4.94zm14.8 0h-9.87v-.96h9.87zm14.8 0h-9.86v-.96h9.87zm14.82 0H3500v-.96h9.86zm14.8 0h-9.86v-.96h9.87zm14.82 0h-9.88v-.96h9.88zm6.8 0h-1.87v-.96h1.87zm111.66 0h-9.88v-.96h9.88zm14.8 0h-9.87v-.96h9.87zm9.88 0h-4.94v-.96h4.94zm-39.5 0h-.06v-.96h.07zM3460.5-619.52h-.5v-.96h.5z" stroke="#3a414a" stroke-width=".05" fill="#3a414a"/><path d="M3697.38-620l-14.26 4.63v-9.26z" fill="#3a414a"/><path d="M3698.92-620l-16.28 5.3v-10.6zm-15.33 3.98l12.24-3.98-12.25-3.98z" stroke="#3a414a" stroke-width=".05" fill="#3a414a"/><g><use xlink:href="#ad" transform="matrix(1,0,0,1,3546.272569444445,-630.7552083333334) translate(0 17.22222222222222)"/><use xlink:href="#u" transform="matrix(1,0,0,1,3546.272569444445,-630.7552083333334) translate(58.342013888888886 17.22222222222222)"/></g><path d="M3460.47-582.68l.07.88.2.84.34.8.45.74.56.66.65.56.74.46.8.33.84.2.88.06h5.14v.95h-5.18l-1-.07-.98-.24-.94-.4-.87-.53-.78-.66-.66-.76-.53-.87-.4-.93-.23-1-.07-1v-6.15h.94zm26.16 6.5h-10.32v-.96h10.33zm15.47 0h-10.3v-.96h10.3zm15.47 0h-10.3v-.96h10.3zm15.48 0h-10.32v-.96h10.32zm8.4 0h-3.24v-.96h3.24zm99.9 0h-10.3v-.96h10.3zm15.48 0h-10.32v-.96h10.33zm15.47 0H3662v-.96h10.3zm10.32 0h-5.16v-.96h5.16zm-56.74 0h-8.66v-.96h8.66zm-165.4-18.76h-.95v-12.28h.94zm0-18.42h-.95v-6.14h.94zM3460.47-619.5h-.94v-.5h.94z" stroke="#3a414a" stroke-width=".05" fill="#3a414a"/><path d="M3697.38-576.67l-14.26 4.64v-9.27z" fill="#3a414a"/><path d="M3698.92-576.67l-16.28 5.3v-10.6zm-15.33 4l12.24-4-12.25-3.98z" stroke="#3a414a" stroke-width=".05" fill="#3a414a"/><g><use xlink:href="#ae" transform="matrix(1,0,0,1,3541.442708333334,-587.4218749999999) translate(0 17.22222222222222)"/><use xlink:href="#u" transform="matrix(1,0,0,1,3541.442708333334,-587.4218749999999) translate(37.33506944444444 17.22222222222222)"/></g><path d="M3000-1374a6 6 0 0 1 6-6h188a6 6 0 0 1 6 6v88a6 6 0 0 1-6 6h-188a6 6 0 0 1-6-6z" fill="#fff"/><path d="M3000-1380h200m0 100h-200" stroke="#3a414a" stroke-width="2" fill="#fff"/><g><use xlink:href="#af" transform="matrix(1,0,0,1,3020.000000000001,-1380) translate(36.727430555555564 58.08376736111111)"/></g><path d="M1135.2-1097.38h-.96v-5.04h.95zm0-10.08h-.96v-10.07h.95zm0-15.1h-.96v-10.08h.95zm0-15.1h-.96v-10.08h.95zm0-15.12h-.96v-10.07h.95zm0-15.1h-.96v-10.08h.95zm0-15.1h-.96v-10.1h.95zm0-31.78h-.96v-8.52h.95zm0-13.56h-.96v-10.07h.95zm0-15.1h-.96v-10.08h.95zm0-15.1h-.96v-10.1h.95zm0-15.12h-.96v-10.07h.95zm0-15.1h-.96v-10.08h.95zm0-15.12h-.96v-10.07h.95zm10.5-25.67h-4.97l-.88.07-.84.2-.8.34-.73.45-.66.56-.55.65-.46.74-.34.8-.2.84-.07.88v5.02h-.96v-5.06l.08-1 .24-.98.38-.94.53-.87.66-.78.78-.66.87-.53.94-.4 1-.23 1-.07h5zm1853.8 0h-5v-.94h5zm-10 0h-10v-.94h10zm-14.98 0h-10v-.94h10zm-15 0h-10v-.94h10zm-14.98 0h-10v-.94h10zm-15 0h-10v-.94h10zm-14.98 0h-10v-.94h10zm-15 0h-10v-.94h10zm-15 0h-9.98v-.94h10zm-14.97 0h-10v-.94h10zm-15 0h-10v-.94h10zm-15 0h-10v-.94h10zm-15 0h-9.98v-.94h10zm-14.98 0h-10v-.94h10zm-15 0h-9.98v-.94h10zm-14.98 0h-10v-.94h10zm-15 0h-9.98v-.94h10zm-14.98 0h-10v-.94h10zm-15 0h-9.98v-.94h10zm-14.98 0h-10v-.94h10zm-15 0h-9.98v-.94h10zm-14.98 0h-10v-.94h10zm-15 0h-9.98v-.94h10zm-14.98 0h-10v-.94h10zm-15 0h-9.98v-.94h10zm-14.98 0h-10v-.94h10zm-15 0h-9.98v-.94h10zm-14.98 0h-10v-.94h10zm-15 0h-9.98v-.94h10zm-14.98 0h-10v-.94h10zm-15 0h-9.98v-.94h10zm-14.98 0h-10v-.94h10zm-15 0h-9.98v-.94h10zm-14.98 0h-10v-.94h10zm-15 0h-9.98v-.94h10zm-14.98 0h-10v-.94h10zm-15 0h-9.98v-.94h10zm-14.98 0h-10v-.94h10zm-15 0h-10v-.94h10zm-14.98 0h-10v-.94h10zm-15 0h-10v-.94h10zm-14.98 0h-10v-.94h10zm-15 0h-10v-.94h10zm-14.98 0h-10v-.94h10zm-15 0h-10v-.94h10zm-14.98 0h-10v-.94h10zm-15 0h-10v-.94h10zm-14.98 0h-10v-.94h10zm-15 0h-10v-.94h10zm-14.98 0h-10v-.94h10zm-15 0h-10v-.94h10zm-14.98 0h-10v-.94h10zm-15 0h-10v-.94h10zm-14.98 0h-10v-.94h10zm-15 0h-10v-.94h10zm-15 0h-9.98v-.94h10zm-14.97 0h-10v-.94h10zm-15 0h-10v-.94h10zm-15 0h-9.98v-.94h10zm-14.98 0h-10v-.94h10zm-15 0h-9.98v-.94h9.98zm-14.98 0h-10v-.94h10zm-15 0h-10v-.94h10zm-15 0h-9.98v-.94h10zm-14.98 0h-10v-.94h10zm-15 0h-9.98v-.94h10zm-14.98 0h-10v-.94h10zm-15 0h-9.98v-.94h10zm-14.98 0h-10v-.94h10zm-15 0h-9.98v-.94h10zm-14.98 0h-10v-.94h10zm-15 0h-9.98v-.94h10zm-14.98 0h-10v-.94h10zm-15 0h-9.98v-.94h10zm-14.98 0h-10v-.94h10zm-15 0h-9.98v-.94h10zm-14.98 0h-10v-.94h10zm-15 0h-9.98v-.94h10zm-14.98 0h-10v-.94h10zm-15 0h-9.98v-.94h10zm-14.98 0h-10v-.94h10zm-15 0h-9.98v-.94h10zm-14.98 0h-10v-.94h10zm-15 0h-9.98v-.94h10zm-14.98 0h-10v-.94h10zm-15 0h-9.98v-.94h10zm-14.98 0h-10v-.94h10zm-15 0h-9.98v-.94h10zm-14.98 0h-10v-.94h10zm-15 0h-9.98v-.94h10zm-14.98 0h-10v-.94h10zm-15 0h-10v-.94h10zm-14.98 0h-10v-.94h10zm-15 0h-10v-.94h10zm-14.98 0h-10v-.94h10zm-15 0h-10v-.94h10zm-14.98 0h-10v-.94h10zm-15 0h-10v-.94h10zm-14.98 0h-10v-.94h10zm-15 0h-10v-.94h10zm-14.98 0h-10v-.94h10zm-15 0h-10v-.94h10zm-14.98 0h-10v-.94h10zm-15 0h-10v-.94h10zm-14.98 0h-10v-.94h10zm-15 0h-10v-.94h10zm-14.98 0h-10v-.94h10zm-15 0h-10v-.94h10zm-14.98 0h-10v-.94h10zm-15 0h-10v-.94h10zm-15 0h-9.98v-.94h10zm-14.98 0h-10v-.94h10zm-15 0h-9.98v-.94h10zm-14.98 0h-10v-.94h10zm-15 0h-9.98v-.94h10zm-14.98 0h-10v-.94h10zm-15 0h-9.98v-.94h10zm-14.98 0h-10v-.94h10zm-15 0h-9.98v-.94h10zm-14.98 0h-10v-.94h10zm-15 0h-9.98v-.94h10zm-14.98 0h-10v-.94h10zm-15 0h-9.98v-.94h10zm-14.98 0h-10v-.94h10z" stroke="#3a414a" stroke-width=".05" fill="#3a414a"/><path d="M3000-1329.53h-.5v-.94h.5z" fill="#3a414a"/><path stroke="#3a414a" stroke-width=".05" fill="#3a414a"/><path d="M1134.7-1082.62l-4.62-14.26h9.27z" fill="#3a414a"/><path d="M1134.7-1081.08l-5.28-16.28H1140zm-3.97-15.33l3.98 12.25 4-12.26z" stroke="#3a414a" stroke-width=".05" fill="#3a414a"/><g><use xlink:href="#ag" transform="matrix(1,0,0,1,1069.6103292284522,-1214.758544382244) translate(0 17.22222222222222)"/><use xlink:href="#ah" transform="matrix(1,0,0,1,1069.6103292284522,-1214.758544382244) translate(68.75 17.22222222222222)"/></g><path d="M3280.5-1162.8h-.08l-.08-.03-.07-.03-.06-.04-.05-.05-.06-.06-.05-.08-.03-.07v-.08l-.02-.08v-4.88m0-4.87v-9.74m0-4.86v-9.73m0-4.86v-9.74m0-4.87v-9.74m0-4.88v-9.74m0-4.87v-9.73m0-4.87v-9.74m0-4.87v-9.74m0-4.87v-9.75m0-4.87v-9.74m0-4.87v-4.87l-.07-.94-.22-.9-.35-.88-.5-.8-.6-.72-.72-.6-.8-.5-.88-.37-.9-.23-.95-.07h-4.8m-4.8 0h-9.6m-4.8 0h-9.6m-4.8 0h-9.6m-4.82 0h-4.8M3280.5-1162.8h.5" stroke="#3a414a" fill="none"/><path d="M3201.62-1330l14.26-4.63v9.27z" stroke="#3a414a" fill="#3a414a"/><defs><path d="M763 24c-353 0-583-224-583-531v-983h190v968c0 214 149 370 393 370 243 0 391-156 391-370v-968h190v983c0 307-230 531-581 531" id="ai"/><path d="M538 24C308 24 148-78 108-271l171-41c32 123 123 178 257 178 156 0 256-77 256-169 0-77-54-128-164-154l-186-44c-203-48-300-148-300-305 0-192 176-326 414-326 230 0 351 112 402 269l-163 42c-31-80-94-158-238-158-133 0-233 69-233 162 0 83 57 129 188 160l169 40c203 48 298 149 298 302 0 196-179 339-441 339" id="aj"/><path d="M628 24c-324 0-524-230-524-574 0-343 198-582 503-582 237 0 487 146 487 559v75H286c9 234 145 362 343 362 132 0 231-58 273-172l174 48C1024-91 857 24 628 24zM287-650h624c-17-190-120-322-304-322-192 0-309 151-320 322" id="ak"/><path d="M158 0v-1118h174v172h12c41-113 157-188 290-188 26 0 70 2 91 3v181c-11-2-60-10-108-10-161 0-279 109-279 260V0H158" id="al"/><g id="a"><use transform="matrix(0.010850694444444444,0,0,0.010850694444444444,0,0)" xlink:href="#ai"/><use transform="matrix(0.010850694444444444,0,0,0.010850694444444444,16.536458333333332,0)" xlink:href="#aj"/><use transform="matrix(0.010850694444444444,0,0,0.010850694444444444,28.266059027777775,0)" xlink:href="#ak"/><use transform="matrix(0.010850694444444444,0,0,0.010850694444444444,41.22178819444444,0)" xlink:href="#al"/></g><path d="M789 20c-398 0-667-293-667-764 0-473 273-766 655-766 315 0 558 198 612 487h-196c-61-191-204-311-415-311-262 0-471 207-471 590 0 380 208 588 482 588 249 0 420-165 425-427H828v-166h572v163c0 370-256 606-611 606" id="am"/><path d="M537 14c-226 0-379-139-379-422v-710h180v695c0 172 97 275 253 275 160 0 281-109 281-300v-670h181V0H879v-209C806-46 684 14 537 14" id="an"/><path d="M598-1118v154H368v674c0 100 37 144 132 144 23 0 62-6 92-12L629-6c-37 13-88 20-134 20-193 0-307-107-307-290v-688H20v-154h168v-266h180v266h230" id="ao"/><g id="b"><use transform="matrix(0.010850694444444444,0,0,0.010850694444444444,0,0)" xlink:href="#am"/><use transform="matrix(0.010850694444444444,0,0,0.010850694444444444,16.57986111111111,0)" xlink:href="#an"/><use transform="matrix(0.010850694444444444,0,0,0.010850694444444444,29.720052083333332,0)" xlink:href="#ak"/><use transform="matrix(0.010850694444444444,0,0,0.010850694444444444,42.67578125,0)" xlink:href="#aj"/><use transform="matrix(0.010850694444444444,0,0,0.010850694444444444,54.40538194444444,0)" xlink:href="#ao"/></g><path d="M126 0v-134l627-806v-11H146v-167h839v143L376-178v11h629V0H126" id="ap"/><path d="M140 405l46-156c120 36 205 19 263-150l32-93L54-1118h197c107 313 237 620 324 950 87-331 219-637 326-950h196L606 167c-68 178-176 259-334 259-64 0-113-12-132-21" id="aq"/><path d="M158 0v-1490h180v865h22l478-493h223L593-638 1096 0H865L456-523 338-412V0H158" id="ar"/><path d="M613 24c-304 0-509-231-509-576 0-350 205-580 509-580 305 0 511 230 511 580 0 345-206 576-511 576zm0-161c226 0 329-195 329-415 0-222-103-419-329-419-223 0-326 196-326 419 0 220 103 415 326 415" id="as"/><path d="M409 0L70-1118h191c89 329 165 560 243 925 75-353 154-601 240-925h192c85 325 161 564 235 922 77-354 157-598 244-922h191L1267 0h-179c-86-307-176-590-250-913C763-588 675-308 588 0H409" id="at"/><path d="M338-670V0H158v-1118h173l1 207c72-158 192-221 342-221 226 0 378 139 378 422V0H872v-695c0-172-96-275-252-275-161 0-282 109-282 300" id="au"/><path d="M158 0v-1118h180V0H158zm91-1301c-68 0-125-53-125-119s57-119 125-119c69 0 126 53 126 119s-57 119-126 119" id="av"/><path d="M613 24c-304 0-509-231-509-576 0-350 205-580 509-580 216 0 392 114 453 309l-173 49c-33-115-133-197-280-197-223 0-326 196-326 419 0 220 103 415 326 415 150 0 252-85 285-206l172 49C1010-95 832 24 613 24" id="aw"/><g id="c"><use transform="matrix(0.010850694444444444,0,0,0.010850694444444444,0,0)" xlink:href="#an"/><use transform="matrix(0.010850694444444444,0,0,0.010850694444444444,13.140190972222221,0)" xlink:href="#al"/><use transform="matrix(0.010850694444444444,0,0,0.010850694444444444,21.506076388888886,0)" xlink:href="#ap"/><use transform="matrix(0.010850694444444444,0,0,0.010850694444444444,33.77821180555555,0)" xlink:href="#aq"/><use transform="matrix(0.010850694444444444,0,0,0.010850694444444444,46.59288194444444,0)" xlink:href="#ao"/><use transform="matrix(0.010850694444444444,0,0,0.010850694444444444,53.86284722222222,0)" xlink:href="#ar"/><use transform="matrix(0.010850694444444444,0,0,0.010850694444444444,65.55989583333333,0)" xlink:href="#as"/><use transform="matrix(0.010850694444444444,0,0,0.010850694444444444,78.48307291666666,0)" xlink:href="#at"/><use transform="matrix(0.010850694444444444,0,0,0.010850694444444444,96.66883680555556,0)" xlink:href="#au"/><use transform="matrix(0.010850694444444444,0,0,0.010850694444444444,109.79817708333331,0)" xlink:href="#av"/><use transform="matrix(0.010850694444444444,0,0,0.010850694444444444,115.18012152777776,0)" xlink:href="#aw"/><use transform="matrix(0.010850694444444444,0,0,0.010850694444444444,127.44140625,0)" xlink:href="#aq"/></g><path d="M653-1490V0H466v-1314h-10L96-1047v-204l324-239h233" id="ax"/><path d="M295 13c-75 0-135-60-135-135s60-135 135-135 135 60 135 135S370 13 295 13" id="ay"/><path d="M646 20c-332 0-524-278-524-764 0-483 194-766 524-766s524 283 524 766c0 485-191 764-524 764zm0-166c218 0 341-220 341-598 0-380-123-601-341-601s-341 222-341 601c0 378 123 598 341 598" id="az"/><g id="d"><use transform="matrix(0.010850694444444444,0,0,0.010850694444444444,0,0)" xlink:href="#ax"/><use transform="matrix(0.010850694444444444,0,0,0.010850694444444444,9.038628472222221,0)" xlink:href="#ay"/><use transform="matrix(0.010850694444444444,0,0,0.010850694444444444,14.876302083333332,0)" xlink:href="#az"/></g><path d="M52 0l541-1490h220L1361 0h-200l-149-416H398L254 0H52zm404-582h497c-103-290-145-390-251-756-108 377-145 460-246 756" id="aA"/><g id="e"><use transform="matrix(0.010850694444444444,0,0,0.010850694444444444,0,0)" xlink:href="#aA"/><use transform="matrix(0.010850694444444444,0,0,0.010850694444444444,15.33203125,0)" xlink:href="#aw"/><use transform="matrix(0.010850694444444444,0,0,0.010850694444444444,28.02734375,0)" xlink:href="#as"/><use transform="matrix(0.010850694444444444,0,0,0.010850694444444444,41.35199652777778,0)" xlink:href="#an"/><use transform="matrix(0.010850694444444444,0,0,0.010850694444444444,54.4921875,0)" xlink:href="#au"/><use transform="matrix(0.010850694444444444,0,0,0.010850694444444444,67.62152777777777,0)" xlink:href="#ao"/></g><path d="M611 442c-248 0-391-105-460-228l146-94c47 65 117 165 314 165 178 0 307-82 307-266v-224h-17C863-141 792-18 576-18c-268 0-472-195-472-546 0-346 197-568 476-568 216 0 288 133 326 193h17v-179h175V29c0 289-215 413-487 413zm-5-620c203 0 314-146 314-390 0-237-108-403-314-403-213 0-319 180-319 403 0 230 109 390 319 390" id="aB"/><g id="f"><use transform="matrix(0.010850694444444444,0,0,0.010850694444444444,0,0)" xlink:href="#al"/><use transform="matrix(0.010850694444444444,0,0,0.010850694444444444,7.996961805555555,0)" xlink:href="#ak"/><use transform="matrix(0.010850694444444444,0,0,0.010850694444444444,20.95269097222222,0)" xlink:href="#aB"/><use transform="matrix(0.010850694444444444,0,0,0.010850694444444444,34.58116319444444,0)" xlink:href="#av"/><use transform="matrix(0.010850694444444444,0,0,0.010850694444444444,39.963107638888886,0)" xlink:href="#aj"/><use transform="matrix(0.010850694444444444,0,0,0.010850694444444444,51.69270833333333,0)" xlink:href="#ao"/><use transform="matrix(0.010850694444444444,0,0,0.010850694444444444,58.96267361111111,0)" xlink:href="#al"/><use transform="matrix(0.010850694444444444,0,0,0.010850694444444444,67.67578125,0)" xlink:href="#aq"/></g><path fill="#333" d="M128 0v-1118h290v195h12c54-169 184-238 367-200v268c-27-8-86-15-130-15-138 0-239 95-239 234V0H128" id="aC"/><path fill="#333" d="M633 22C291 22 81-200 81-553c0-345 210-579 537-579 292 0 525 185 525 567v84H378c7 183 109 277 260 277 105 0 184-46 216-132l272 51C1071-99 893 22 633 22zM380-669h474c-15-146-94-237-233-237-143 0-229 99-241 237" id="aD"/><path fill="#333" d="M625 442c-280 0-454-114-503-274l258-72c28 63 97 128 243 128 153 0 246-69 246-216v-206h-23C805-108 717-16 536-16 284-16 81-191 81-561c0-378 208-571 456-571 188 0 280 113 321 202h13v-188h295V-9c0 303-226 451-541 451zm5-686c153 0 240-119 240-319 0-198-86-329-240-329-158 0-241 137-241 329 0 195 85 319 241 319" id="aE"/><path fill="#333" d="M128 0v-1118h300V0H128zm150-1264c-91 0-165-68-165-154 0-85 74-154 165-154 90 0 165 69 165 154 0 86-75 154-165 154" id="aF"/><path fill="#333" d="M572 22C302 22 117-98 78-306l279-48c29 105 101 156 224 156 114 0 185-48 185-115 0-118-228-130-337-155-215-49-322-150-322-317 0-215 187-347 470-347 265 0 424 116 466 298l-266 47c-24-76-87-130-196-130-98 0-174 46-174 113 0 56 38 95 144 117l201 40c216 44 320 143 320 302 0 220-207 367-500 367" id="aG"/><path fill="#333" d="M683-1118v229H474v562c0 71 29 104 102 104 23 0 73-7 95-13l43 225C647 9 580 16 520 16 296 16 174-96 174-301v-588H20v-229h154v-266h300v266h209" id="aH"/><path fill="#333" d="M440 22C227 22 68-92 68-313c0-250 202-322 422-343 195-21 271-24 271-105 0-95-63-149-175-149-116 0-187 57-211 129l-275-46c57-194 237-305 487-305 240 0 474 108 474 379V0H777v-155h-10C713-51 605 22 440 22zm85-211c140 0 238-93 238-211v-121c-37 26-156 42-222 51-111 16-185 59-185 149 0 87 70 132 169 132" id="aI"/><path fill="#333" d="M628 22C291 22 81-210 81-554c0-346 210-578 547-578 336 0 547 232 547 578 0 344-211 576-547 576zm0-236c160 0 242-146 242-341 0-197-82-341-242-341S387-753 387-555c0 195 81 341 241 341" id="aJ"/><path fill="#333" d="M428-647V0H128v-1118h283l4 231c63-156 176-245 348-245 232 0 384 159 384 421V0H847v-659c0-139-76-222-202-222-128 0-217 86-217 234" id="aK"/><g id="g"><use transform="matrix(0.008680555555555556,0,0,0.008680555555555556,0,0)" xlink:href="#aC"/><use transform="matrix(0.008680555555555556,0,0,0.008680555555555556,6.805555555555556,0)" xlink:href="#aD"/><use transform="matrix(0.008680555555555556,0,0,0.008680555555555556,17.395833333333336,0)" xlink:href="#aE"/><use transform="matrix(0.008680555555555556,0,0,0.008680555555555556,28.628472222222225,0)" xlink:href="#aF"/><use transform="matrix(0.008680555555555556,0,0,0.008680555555555556,33.44618055555556,0)" xlink:href="#aG"/><use transform="matrix(0.008680555555555556,0,0,0.008680555555555556,43.40277777777778,0)" xlink:href="#aH"/><use transform="matrix(0.008680555555555556,0,0,0.008680555555555556,49.91319444444445,0)" xlink:href="#aC"/><use transform="matrix(0.008680555555555556,0,0,0.008680555555555556,56.90972222222222,0)" xlink:href="#aI"/><use transform="matrix(0.008680555555555556,0,0,0.008680555555555556,67.23090277777777,0)" xlink:href="#aH"/><use transform="matrix(0.008680555555555556,0,0,0.008680555555555556,73.74131944444444,0)" xlink:href="#aF"/><use transform="matrix(0.008680555555555556,0,0,0.008680555555555556,78.55902777777777,0)" xlink:href="#aJ"/><use transform="matrix(0.008680555555555556,0,0,0.008680555555555556,89.46180555555554,0)" xlink:href="#aK"/></g><path fill="#333" d="M628 22C291 22 81-210 81-554c0-346 210-578 547-578 265 0 455 142 497 372l-279 52c-25-116-99-188-215-188-160 0-244 139-244 341 0 200 84 341 244 341 116 0 193-74 217-195l279 51C1085-123 896 22 628 22" id="aL"/><path fill="#333" d="M128 418v-1536h295v188h14c41-89 129-202 319-202 248 0 453 193 453 575 0 372-197 576-455 576-183 0-275-108-317-198h-9v597H128zm534-640c156 0 240-139 240-336 0-196-83-334-240-334-154 0-241 131-241 334 0 202 88 336 241 336" id="aM"/><g id="h"><use transform="matrix(0.008680555555555556,0,0,0.008680555555555556,0,0)" xlink:href="#aC"/><use transform="matrix(0.008680555555555556,0,0,0.008680555555555556,6.805555555555556,0)" xlink:href="#aD"/><use transform="matrix(0.008680555555555556,0,0,0.008680555555555556,17.395833333333336,0)" xlink:href="#aL"/><use transform="matrix(0.008680555555555556,0,0,0.008680555555555556,27.85590277777778,0)" xlink:href="#aD"/><use transform="matrix(0.008680555555555556,0,0,0.008680555555555556,38.44618055555556,0)" xlink:href="#aF"/><use transform="matrix(0.008680555555555556,0,0,0.008680555555555556,43.26388888888889,0)" xlink:href="#aM"/><use transform="matrix(0.008680555555555556,0,0,0.008680555555555556,54.470486111111114,0)" xlink:href="#aH"/></g><path fill="#333" d="M537 19C279 19 81-185 81-557c0-382 206-575 454-575 190 0 278 113 318 202h10v-560h300V0H868v-179h-15C812-89 719 19 537 19zm92-241c153 0 240-134 240-336 0-203-86-334-240-334-158 0-240 138-240 334 0 197 84 336 240 336" id="aN"/><g id="i"><use transform="matrix(0.008680555555555556,0,0,0.008680555555555556,0,0)" xlink:href="#aI"/><use transform="matrix(0.008680555555555556,0,0,0.008680555555555556,10.321180555555555,0)" xlink:href="#aN"/><use transform="matrix(0.008680555555555556,0,0,0.008680555555555556,21.52777777777778,0)" xlink:href="#aN"/></g><path fill="#333" d="M361 0L31-1118h315c68 295 127 523 188 845 63-317 128-551 199-845h276c71 296 131 525 196 846 57-321 119-552 186-846h319L1378 0h-305c-73-261-148-486-204-771C813-484 740-261 666 0H361" id="aO"/><g id="j"><use transform="matrix(0.008680555555555556,0,0,0.008680555555555556,0,0)" xlink:href="#aK"/><use transform="matrix(0.008680555555555556,0,0,0.008680555555555556,11.067708333333334,0)" xlink:href="#aD"/><use transform="matrix(0.008680555555555556,0,0,0.008680555555555556,21.414930555555557,0)" xlink:href="#aO"/></g><path fill="#333" d="M513 14c-232 0-385-159-385-421v-711h300v659c0 139 76 222 202 222 127 0 217-86 217-234v-647h301V0H864l-4-232C797-74 683 14 513 14" id="aP"/><g id="k"><use transform="matrix(0.008680555555555556,0,0,0.008680555555555556,0,0)" xlink:href="#aI"/><use transform="matrix(0.008680555555555556,0,0,0.008680555555555556,10.321180555555555,0)" xlink:href="#aL"/><use transform="matrix(0.008680555555555556,0,0,0.008680555555555556,20.78125,0)" xlink:href="#aJ"/><use transform="matrix(0.008680555555555556,0,0,0.008680555555555556,31.68402777777778,0)" xlink:href="#aP"/><use transform="matrix(0.008680555555555556,0,0,0.008680555555555556,42.751736111111114,0)" xlink:href="#aK"/><use transform="matrix(0.008680555555555556,0,0,0.008680555555555556,53.81944444444445,0)" xlink:href="#aH"/></g><path d="M471 26C259 26 90-98 90-318c0-256 228-303 435-329 202-27 287-16 287-108 0-139-79-219-234-219-161 0-248 86-283 164l-173-57c86-203 278-265 451-265 150 0 419 46 419 395V0H815v-152h-12C765-73 660 26 471 26zm31-159c199 0 310-134 310-271v-155c-30 35-226 55-295 64-131 17-246 59-246 186 0 116 97 176 231 176" id="aQ"/><g id="l"><use transform="matrix(0.010850694444444444,0,0,0.010850694444444444,0,0)" xlink:href="#aQ"/><use transform="matrix(0.010850694444444444,0,0,0.010850694444444444,12.47829861111111,0)" xlink:href="#an"/><use transform="matrix(0.010850694444444444,0,0,0.010850694444444444,25.618489583333332,0)" xlink:href="#ao"/><use transform="matrix(0.010850694444444444,0,0,0.010850694444444444,32.99696180555555,0)" xlink:href="#aQ"/></g><path d="M934 0v166H0V0h934" id="aR"/><path d="M338-1490V0H158v-1490h180" id="aS"/><g id="m"><use transform="matrix(0.010850694444444444,0,0,0.010850694444444444,0,0)" xlink:href="#aw"/><use transform="matrix(0.010850694444444444,0,0,0.010850694444444444,12.369791666666666,0)" xlink:href="#ap"/><use transform="matrix(0.010850694444444444,0,0,0.010850694444444444,24.641927083333332,0)" xlink:href="#aQ"/><use transform="matrix(0.010850694444444444,0,0,0.010850694444444444,37.12022569444444,0)" xlink:href="#al"/><use transform="matrix(0.010850694444444444,0,0,0.010850694444444444,45.83333333333333,0)" xlink:href="#au"/><use transform="matrix(0.010850694444444444,0,0,0.010850694444444444,58.96267361111111,0)" xlink:href="#aQ"/><use transform="matrix(0.010850694444444444,0,0,0.010850694444444444,71.44097222222221,0)" xlink:href="#aR"/><use transform="matrix(0.010850694444444444,0,0,0.010850694444444444,82.32421875,0)" xlink:href="#aS"/><use transform="matrix(0.010850694444444444,0,0,0.010850694444444444,87.70616319444444,0)" xlink:href="#av"/><use transform="matrix(0.010850694444444444,0,0,0.010850694444444444,93.08810763888889,0)" xlink:href="#aj"/><use transform="matrix(0.010850694444444444,0,0,0.010850694444444444,104.81770833333333,0)" xlink:href="#ao"/><use transform="matrix(0.010850694444444444,0,0,0.010850694444444444,112.19618055555556,0)" xlink:href="#aQ"/></g><path d="M577 24c-279 0-473-224-473-580 0-354 195-576 474-576 218 0 287 134 324 193h14v-551h180V0H922v-173h-20C865-111 790 24 577 24zm27-161c203 0 314-172 314-421 0-247-108-413-314-413-212 0-317 181-317 413 0 235 108 421 317 421" id="aT"/><path d="M158 0v-1118h175l1 205c55-151 181-225 313-225 147 0 245 90 285 228 53-141 190-228 352-228 194 0 352 125 352 384V0h-181v-749c0-161-105-225-225-225-151 0-243 103-243 244V0H807v-767c0-124-93-207-219-207-131 0-250 92-250 270V0H158" id="aU"/><g id="n"><use transform="matrix(0.010850694444444444,0,0,0.010850694444444444,0,0)" xlink:href="#aQ"/><use transform="matrix(0.010850694444444444,0,0,0.010850694444444444,12.47829861111111,0)" xlink:href="#aT"/><use transform="matrix(0.010850694444444444,0,0,0.010850694444444444,26.085069444444443,0)" xlink:href="#aU"/><use transform="matrix(0.010850694444444444,0,0,0.010850694444444444,45.55121527777778,0)" xlink:href="#av"/><use transform="matrix(0.010850694444444444,0,0,0.010850694444444444,50.93315972222221,0)" xlink:href="#au"/></g><g id="o"><use transform="matrix(0.010850694444444444,0,0,0.010850694444444444,0,0)" xlink:href="#aU"/><use transform="matrix(0.010850694444444444,0,0,0.010850694444444444,19.466145833333332,0)" xlink:href="#av"/><use transform="matrix(0.010850694444444444,0,0,0.010850694444444444,24.84809027777778,0)" xlink:href="#aQ"/><use transform="matrix(0.010850694444444444,0,0,0.010850694444444444,37.326388888888886,0)" xlink:href="#aj"/><use transform="matrix(0.010850694444444444,0,0,0.010850694444444444,49.05598958333333,0)" xlink:href="#ao"/><use transform="matrix(0.010850694444444444,0,0,0.010850694444444444,56.43446180555555,0)" xlink:href="#aQ"/></g><g id="p"><use transform="matrix(0.010850694444444444,0,0,0.010850694444444444,0,0)" xlink:href="#aw"/><use transform="matrix(0.010850694444444444,0,0,0.010850694444444444,12.91232638888889,0)" xlink:href="#aQ"/><use transform="matrix(0.010850694444444444,0,0,0.010850694444444444,25.390625,0)" xlink:href="#al"/></g><path d="M158 418v-1536h174v179h20c37-59 106-193 324-193 279 0 474 222 474 576 0 356-194 580-473 580-213 0-288-135-325-197h-14v591H158zm492-555c209 0 317-186 317-421 0-232-105-413-317-413-206 0-314 166-314 413 0 249 111 421 314 421" id="aV"/><g id="q"><use transform="matrix(0.010850694444444444,0,0,0.010850694444444444,0,0)" xlink:href="#aV"/><use transform="matrix(0.010850694444444444,0,0,0.010850694444444444,13.823784722222221,0)" xlink:href="#aQ"/><use transform="matrix(0.010850694444444444,0,0,0.010850694444444444,26.302083333333332,0)" xlink:href="#au"/><use transform="matrix(0.010850694444444444,0,0,0.010850694444444444,39.43142361111111,0)" xlink:href="#ak"/><use transform="matrix(0.010850694444444444,0,0,0.010850694444444444,52.38715277777778,0)" xlink:href="#aS"/></g><path fill="#333" d="M428-1490V0H128v-1490h300" id="aW"/><g id="r"><use transform="matrix(0.008680555555555556,0,0,0.008680555555555556,0,0)" xlink:href="#aW"/><use transform="matrix(0.008680555555555556,0,0,0.008680555555555556,4.817708333333334,0)" xlink:href="#aJ"/><use transform="matrix(0.008680555555555556,0,0,0.008680555555555556,15.720486111111112,0)" xlink:href="#aE"/></g><g id="s"><use transform="matrix(0.008680555555555556,0,0,0.008680555555555556,0,0)" xlink:href="#aF"/><use transform="matrix(0.008680555555555556,0,0,0.008680555555555556,4.817708333333334,0)" xlink:href="#aK"/></g><g id="t"><use transform="matrix(0.008680555555555556,0,0,0.008680555555555556,0,0)" xlink:href="#aW"/><use transform="matrix(0.008680555555555556,0,0,0.008680555555555556,4.817708333333334,0)" xlink:href="#aJ"/><use transform="matrix(0.008680555555555556,0,0,0.008680555555555556,15.894097222222223,0)" xlink:href="#aI"/><use transform="matrix(0.008680555555555556,0,0,0.008680555555555556,26.21527777777778,0)" xlink:href="#aN"/><use transform="matrix(0.008680555555555556,0,0,0.008680555555555556,37.421875,0)" xlink:href="#aF"/><use transform="matrix(0.008680555555555556,0,0,0.008680555555555556,42.239583333333336,0)" xlink:href="#aK"/><use transform="matrix(0.008680555555555556,0,0,0.008680555555555556,53.30729166666667,0)" xlink:href="#aE"/></g><g id="u"><use transform="matrix(0.008680555555555556,0,0,0.008680555555555556,0,0)" xlink:href="#aN"/><use transform="matrix(0.008680555555555556,0,0,0.008680555555555556,11.206597222222223,0)" xlink:href="#aI"/><use transform="matrix(0.008680555555555556,0,0,0.008680555555555556,21.52777777777778,0)" xlink:href="#aH"/><use transform="matrix(0.008680555555555556,0,0,0.008680555555555556,28.125000000000004,0)" xlink:href="#aI"/></g><g id="v"><use transform="matrix(0.008680555555555556,0,0,0.008680555555555556,0,0)" xlink:href="#aJ"/><use transform="matrix(0.008680555555555556,0,0,0.008680555555555556,10.902777777777779,0)" xlink:href="#aP"/><use transform="matrix(0.008680555555555556,0,0,0.008680555555555556,21.970486111111114,0)" xlink:href="#aH"/></g><g id="w"><use transform="matrix(0.010850694444444444,0,0,0.010850694444444444,0,0)" xlink:href="#at"/><use transform="matrix(0.010850694444444444,0,0,0.010850694444444444,18.18576388888889,0)" xlink:href="#aq"/><use transform="matrix(0.010850694444444444,0,0,0.010850694444444444,30.674913194444443,0)" xlink:href="#aV"/><use transform="matrix(0.010850694444444444,0,0,0.010850694444444444,44.28168402777777,0)" xlink:href="#as"/><use transform="matrix(0.010850694444444444,0,0,0.010850694444444444,57.28081597222221,0)" xlink:href="#ap"/><use transform="matrix(0.010850694444444444,0,0,0.010850694444444444,69.55295138888889,0)" xlink:href="#aq"/><use transform="matrix(0.010850694444444444,0,0,0.010850694444444444,81.60807291666667,0)" xlink:href="#aw"/><use transform="matrix(0.010850694444444444,0,0,0.010850694444444444,93.97786458333334,0)" xlink:href="#ap"/><use transform="matrix(0.010850694444444444,0,0,0.010850694444444444,105.92447916666669,0)" xlink:href="#ak"/><use transform="matrix(0.010850694444444444,0,0,0.010850694444444444,118.88020833333334,0)" xlink:href="#au"/><use transform="matrix(0.010850694444444444,0,0,0.010850694444444444,132.00954861111114,0)" xlink:href="#av"/><use transform="matrix(0.010850694444444444,0,0,0.010850694444444444,137.3914930555556,0)" xlink:href="#ak"/></g><path d="M120-303v-155l652-1032h231v1020h202v167h-202V0H821v-303H120zm702-167v-782h-12L323-482v12h499" id="aX"/><g id="x"><use transform="matrix(0.010850694444444444,0,0,0.010850694444444444,0,0)" xlink:href="#aX"/><use transform="matrix(0.010850694444444444,0,0,0.010850694444444444,13.606770833333332,0)" xlink:href="#ay"/><use transform="matrix(0.010850694444444444,0,0,0.010850694444444444,19.444444444444446,0)" xlink:href="#az"/></g><g id="y"><use transform="matrix(0.010850694444444444,0,0,0.010850694444444444,0,0)" xlink:href="#al"/><use transform="matrix(0.010850694444444444,0,0,0.010850694444444444,7.996961805555555,0)" xlink:href="#ak"/><use transform="matrix(0.010850694444444444,0,0,0.010850694444444444,20.95269097222222,0)" xlink:href="#au"/><use transform="matrix(0.010850694444444444,0,0,0.010850694444444444,34.08203125,0)" xlink:href="#ao"/></g><path d="M154 0v-137l495-537c165-179 249-281 249-418 0-156-121-253-280-253-170 0-278 110-278 278H158c0-264 200-443 465-443 266 0 455 183 455 416 0 161-73 288-336 568L416-179v12h687V0H154" id="aY"/><g id="z"><use transform="matrix(0.010850694444444444,0,0,0.010850694444444444,0,0)" xlink:href="#aY"/><use transform="matrix(0.010850694444444444,0,0,0.010850694444444444,13.55251736111111,0)" xlink:href="#ay"/><use transform="matrix(0.010850694444444444,0,0,0.010850694444444444,19.39019097222222,0)" xlink:href="#az"/></g><path d="M338-670V0H158v-1490h180v566c73-149 190-208 336-208 226 0 379 139 379 422V0H872v-695c0-172-96-275-252-275-161 0-282 109-282 300" id="aZ"/><g id="A"><use transform="matrix(0.010850694444444444,0,0,0.010850694444444444,0,0)" xlink:href="#aw"/><use transform="matrix(0.010850694444444444,0,0,0.010850694444444444,12.6953125,0)" xlink:href="#aZ"/><use transform="matrix(0.010850694444444444,0,0,0.010850694444444444,25.83550347222222,0)" xlink:href="#ak"/><use transform="matrix(0.010850694444444444,0,0,0.010850694444444444,38.791232638888886,0)" xlink:href="#aw"/><use transform="matrix(0.010850694444444444,0,0,0.010850694444444444,51.486545138888886,0)" xlink:href="#ar"/><use transform="matrix(0.010850694444444444,0,0,0.010850694444444444,63.68272569444444,0)" xlink:href="#av"/><use transform="matrix(0.010850694444444444,0,0,0.010850694444444444,69.06467013888889,0)" xlink:href="#au"/><use transform="matrix(0.010850694444444444,0,0,0.010850694444444444,82.19401041666666,0)" xlink:href="#aB"/></g><g id="B"><use transform="matrix(0.010850694444444444,0,0,0.010850694444444444,0,0)" xlink:href="#an"/><use transform="matrix(0.010850694444444444,0,0,0.010850694444444444,13.140190972222221,0)" xlink:href="#aj"/><use transform="matrix(0.010850694444444444,0,0,0.010850694444444444,24.869791666666664,0)" xlink:href="#ak"/><use transform="matrix(0.010850694444444444,0,0,0.010850694444444444,37.82552083333333,0)" xlink:href="#al"/></g><g id="C"><use transform="matrix(0.008680555555555556,0,0,0.008680555555555556,0,0)" xlink:href="#aF"/><use transform="matrix(0.008680555555555556,0,0,0.008680555555555556,4.817708333333334,0)" xlink:href="#aG"/></g><g id="D"><use transform="matrix(0.008680555555555556,0,0,0.008680555555555556,0,0)" xlink:href="#aJ"/><use transform="matrix(0.008680555555555556,0,0,0.008680555555555556,10.902777777777779,0)" xlink:href="#aK"/></g><path fill="#333" d="M754 19C571 19 479-89 437-179h-14V0H128v-1490h300v560h9c41-89 129-202 319-202 248 0 453 193 453 575 0 372-197 576-455 576zm-92-241c156 0 240-139 240-336 0-196-83-334-240-334-154 0-241 131-241 334 0 202 88 336 241 336" id="ba"/><path fill="#333" d="M128 0v-1490h300v802h17l366-430h347L740-633 1179 0H826L514-456l-86 97V0H128" id="bb"/><path fill="#333" d="M390-458c-5-262 65-345 192-421 92-55 159-122 159-219 0-103-81-170-182-170-97 0-187 63-192 185H79c4-288 220-427 481-427 287 0 489 150 489 402 0 170-86 277-223 359-123 72-173 130-168 291H390zM525 19c-105 0-178-69-178-169 0-101 73-170 178-170 104 0 177 69 177 170 0 100-73 169-177 169" id="bc"/><g id="E"><use transform="matrix(0.008680555555555556,0,0,0.008680555555555556,0,0)" xlink:href="#ba"/><use transform="matrix(0.008680555555555556,0,0,0.008680555555555556,11.206597222222223,0)" xlink:href="#aW"/><use transform="matrix(0.008680555555555556,0,0,0.008680555555555556,16.024305555555557,0)" xlink:href="#aI"/><use transform="matrix(0.008680555555555556,0,0,0.008680555555555556,26.345486111111118,0)" xlink:href="#aL"/><use transform="matrix(0.008680555555555556,0,0,0.008680555555555556,36.80555555555556,0)" xlink:href="#bb"/><use transform="matrix(0.008680555555555556,0,0,0.008680555555555556,47.11805555555556,0)" xlink:href="#aW"/><use transform="matrix(0.008680555555555556,0,0,0.008680555555555556,51.93576388888889,0)" xlink:href="#aF"/><use transform="matrix(0.008680555555555556,0,0,0.008680555555555556,56.75347222222222,0)" xlink:href="#aG"/><use transform="matrix(0.008680555555555556,0,0,0.008680555555555556,66.71006944444446,0)" xlink:href="#aH"/><use transform="matrix(0.008680555555555556,0,0,0.008680555555555556,73.22048611111113,0)" xlink:href="#bc"/></g><g id="F"><use transform="matrix(0.008680555555555556,0,0,0.008680555555555556,0,0)" xlink:href="#aL"/><use transform="matrix(0.008680555555555556,0,0,0.008680555555555556,10.633680555555555,0)" xlink:href="#aI"/><use transform="matrix(0.008680555555555556,0,0,0.008680555555555556,20.95486111111111,0)" xlink:href="#aK"/></g><g id="G"><use transform="matrix(0.008680555555555556,0,0,0.008680555555555556,0,0)" xlink:href="#aC"/><use transform="matrix(0.008680555555555556,0,0,0.008680555555555556,6.805555555555556,0)" xlink:href="#aD"/><use transform="matrix(0.008680555555555556,0,0,0.008680555555555556,17.395833333333336,0)" xlink:href="#aK"/><use transform="matrix(0.008680555555555556,0,0,0.008680555555555556,28.46354166666667,0)" xlink:href="#aH"/></g><use transform="matrix(0.008680555555555556,0,0,0.008680555555555556,0,0)" xlink:href="#aI" id="H"/><g id="I"><use transform="matrix(0.008680555555555556,0,0,0.008680555555555556,0,0)" xlink:href="#aL"/><use transform="matrix(0.008680555555555556,0,0,0.008680555555555556,10.633680555555555,0)" xlink:href="#aI"/><use transform="matrix(0.008680555555555556,0,0,0.008680555555555556,20.95486111111111,0)" xlink:href="#aC"/></g><path fill="#333" d="M233-870l-31-620h289l-30 620H233" id="bd"/><g id="J"><use transform="matrix(0.008680555555555556,0,0,0.008680555555555556,0,0)" xlink:href="#aL"/><use transform="matrix(0.008680555555555556,0,0,0.008680555555555556,10.633680555555555,0)" xlink:href="#aI"/><use transform="matrix(0.008680555555555556,0,0,0.008680555555555556,20.95486111111111,0)" xlink:href="#aK"/><use transform="matrix(0.008680555555555556,0,0,0.008680555555555556,31.649305555555557,0)" xlink:href="#bd"/><use transform="matrix(0.008680555555555556,0,0,0.008680555555555556,37.673611111111114,0)" xlink:href="#aH"/></g><path d="M635 20c-292 0-500-160-510-396h192c11 142 145 229 315 229 187 0 323-105 323-260 0-161-125-274-346-274H488v-165h121c174 0 294-100 294-254 0-148-104-245-266-245-152 0-291 85-297 230H157c8-234 222-395 484-395 278 0 448 188 448 400 0 168-95 291-247 336v12c190 31 301 169 301 357 0 244-216 425-508 425" id="be"/><g id="K"><use transform="matrix(0.010850694444444444,0,0,0.010850694444444444,0,0)" xlink:href="#be"/><use transform="matrix(0.010850694444444444,0,0,0.010850694444444444,13.226996527777777,0)" xlink:href="#ay"/><use transform="matrix(0.010850694444444444,0,0,0.010850694444444444,19.06467013888889,0)" xlink:href="#az"/></g><g id="L"><use transform="matrix(0.010850694444444444,0,0,0.010850694444444444,0,0)" xlink:href="#aw"/><use transform="matrix(0.010850694444444444,0,0,0.010850694444444444,12.91232638888889,0)" xlink:href="#aQ"/><use transform="matrix(0.010850694444444444,0,0,0.010850694444444444,25.390625,0)" xlink:href="#al"/></g><g id="M"><use transform="matrix(0.008680555555555556,0,0,0.008680555555555556,0,0)" xlink:href="#aL"/><use transform="matrix(0.008680555555555556,0,0,0.008680555555555556,10.633680555555555,0)" xlink:href="#aI"/><use transform="matrix(0.008680555555555556,0,0,0.008680555555555556,20.95486111111111,0)" xlink:href="#aC"/></g><g id="N"><use transform="matrix(0.008680555555555556,0,0,0.008680555555555556,0,0)" xlink:href="#aF"/><use transform="matrix(0.008680555555555556,0,0,0.008680555555555556,4.817708333333334,0)" xlink:href="#aG"/></g><path fill="#333" d="M443 0L31-1118h319c90 293 199 572 268 885 66-313 175-593 264-885h315L784 0H443" id="bf"/><g id="O"><use transform="matrix(0.008680555555555556,0,0,0.008680555555555556,0,0)" xlink:href="#aI"/><use transform="matrix(0.008680555555555556,0,0,0.008680555555555556,10.01736111111111,0)" xlink:href="#bf"/><use transform="matrix(0.008680555555555556,0,0,0.008680555555555556,20.50347222222222,0)" xlink:href="#aI"/><use transform="matrix(0.008680555555555556,0,0,0.008680555555555556,30.82465277777778,0)" xlink:href="#aF"/><use transform="matrix(0.008680555555555556,0,0,0.008680555555555556,35.642361111111114,0)" xlink:href="#aW"/><use transform="matrix(0.008680555555555556,0,0,0.008680555555555556,40.46006944444444,0)" xlink:href="#aI"/><use transform="matrix(0.008680555555555556,0,0,0.008680555555555556,50.78125000000001,0)" xlink:href="#ba"/><use transform="matrix(0.008680555555555556,0,0,0.008680555555555556,61.98784722222222,0)" xlink:href="#aW"/><use transform="matrix(0.008680555555555556,0,0,0.008680555555555556,66.80555555555556,0)" xlink:href="#aD"/></g><g id="P"><use transform="matrix(0.008680555555555556,0,0,0.008680555555555556,0,0)" xlink:href="#aK"/><use transform="matrix(0.008680555555555556,0,0,0.008680555555555556,11.067708333333334,0)" xlink:href="#aJ"/><use transform="matrix(0.008680555555555556,0,0,0.008680555555555556,21.970486111111114,0)" xlink:href="#aH"/></g><path fill="#333" d="M120 396l69-226c123 42 245 23 254-107l8-60L31-1118h319c87 288 199 559 259 872 72-308 185-583 277-872h315L726 132c-68 181-186 294-410 294-79 0-153-13-196-30" id="bg"/><g id="Q"><use transform="matrix(0.008680555555555556,0,0,0.008680555555555556,0,0)" xlink:href="#aI"/><use transform="matrix(0.008680555555555556,0,0,0.008680555555555556,10.01736111111111,0)" xlink:href="#bf"/><use transform="matrix(0.008680555555555556,0,0,0.008680555555555556,20.50347222222222,0)" xlink:href="#aI"/><use transform="matrix(0.008680555555555556,0,0,0.008680555555555556,30.82465277777778,0)" xlink:href="#aF"/><use transform="matrix(0.008680555555555556,0,0,0.008680555555555556,35.642361111111114,0)" xlink:href="#aW"/><use transform="matrix(0.008680555555555556,0,0,0.008680555555555556,40.46006944444444,0)" xlink:href="#aI"/><use transform="matrix(0.008680555555555556,0,0,0.008680555555555556,50.78125000000001,0)" xlink:href="#ba"/><use transform="matrix(0.008680555555555556,0,0,0.008680555555555556,61.98784722222222,0)" xlink:href="#aF"/><use transform="matrix(0.008680555555555556,0,0,0.008680555555555556,66.80555555555556,0)" xlink:href="#aW"/><use transform="matrix(0.008680555555555556,0,0,0.008680555555555556,71.62326388888889,0)" xlink:href="#aF"/><use transform="matrix(0.008680555555555556,0,0,0.008680555555555556,76.44097222222221,0)" xlink:href="#aH"/><use transform="matrix(0.008680555555555556,0,0,0.008680555555555556,83.34201388888889,0)" xlink:href="#bg"/></g><path fill="#333" d="M428-647V0H128v-1490h294v586c65-146 175-228 341-228 232 0 385 159 385 421V0H847v-659c0-139-76-222-202-222-128 0-217 86-217 234" id="bh"/><g id="R"><use transform="matrix(0.008680555555555556,0,0,0.008680555555555556,0,0)" xlink:href="#aL"/><use transform="matrix(0.008680555555555556,0,0,0.008680555555555556,10.460069444444445,0)" xlink:href="#bh"/><use transform="matrix(0.008680555555555556,0,0,0.008680555555555556,21.52777777777778,0)" xlink:href="#aD"/><use transform="matrix(0.008680555555555556,0,0,0.008680555555555556,32.11805555555556,0)" xlink:href="#aL"/><use transform="matrix(0.008680555555555556,0,0,0.008680555555555556,42.578125,0)" xlink:href="#bb"/></g><g id="S"><use transform="matrix(0.008680555555555556,0,0,0.008680555555555556,0,0)" xlink:href="#aC"/><use transform="matrix(0.008680555555555556,0,0,0.008680555555555556,6.805555555555556,0)" xlink:href="#aD"/><use transform="matrix(0.008680555555555556,0,0,0.008680555555555556,17.395833333333336,0)" xlink:href="#aK"/><use transform="matrix(0.008680555555555556,0,0,0.008680555555555556,28.46354166666667,0)" xlink:href="#aH"/></g><use transform="matrix(0.008680555555555556,0,0,0.008680555555555556,0,0)" xlink:href="#aI" id="T"/><g id="U"><use transform="matrix(0.008680555555555556,0,0,0.008680555555555556,0,0)" xlink:href="#aW"/><use transform="matrix(0.008680555555555556,0,0,0.008680555555555556,4.817708333333334,0)" xlink:href="#aJ"/><use transform="matrix(0.008680555555555556,0,0,0.008680555555555556,15.894097222222223,0)" xlink:href="#aI"/><use transform="matrix(0.008680555555555556,0,0,0.008680555555555556,26.21527777777778,0)" xlink:href="#aN"/></g><g id="V"><use transform="matrix(0.008680555555555556,0,0,0.008680555555555556,0,0)" xlink:href="#aP"/><use transform="matrix(0.008680555555555556,0,0,0.008680555555555556,11.067708333333334,0)" xlink:href="#aG"/><use transform="matrix(0.008680555555555556,0,0,0.008680555555555556,21.024305555555557,0)" xlink:href="#aD"/><use transform="matrix(0.008680555555555556,0,0,0.008680555555555556,31.614583333333336,0)" xlink:href="#aC"/></g><g id="W"><use transform="matrix(0.008680555555555556,0,0,0.008680555555555556,0,0)" xlink:href="#aN"/><use transform="matrix(0.008680555555555556,0,0,0.008680555555555556,11.206597222222223,0)" xlink:href="#aI"/><use transform="matrix(0.008680555555555556,0,0,0.008680555555555556,21.52777777777778,0)" xlink:href="#aH"/><use transform="matrix(0.008680555555555556,0,0,0.008680555555555556,28.125000000000004,0)" xlink:href="#aI"/></g><path fill="#333" d="M128 0v-1118h278l12 217c60-163 185-234 319-234 143 0 236 81 288 251 63-172 205-251 359-251 205 0 357 138 357 381V0h-301v-697c0-126-76-187-177-187-114 0-184 79-184 196V0H789v-705c0-109-72-179-174-179-106 0-187 74-187 208V0H128" id="bi"/><g id="X"><use transform="matrix(0.008680555555555556,0,0,0.008680555555555556,0,0)" xlink:href="#bi"/><use transform="matrix(0.008680555555555556,0,0,0.008680555555555556,16.223958333333336,0)" xlink:href="#aF"/><use transform="matrix(0.008680555555555556,0,0,0.008680555555555556,21.04166666666667,0)" xlink:href="#aG"/><use transform="matrix(0.008680555555555556,0,0,0.008680555555555556,30.998263888888893,0)" xlink:href="#bb"/><use transform="matrix(0.008680555555555556,0,0,0.008680555555555556,40.911458333333336,0)" xlink:href="#aD"/><use transform="matrix(0.008680555555555556,0,0,0.008680555555555556,51.18055555555556,0)" xlink:href="#bg"/></g><g id="Y"><use transform="matrix(0.008680555555555556,0,0,0.008680555555555556,0,0)" xlink:href="#aN"/><use transform="matrix(0.008680555555555556,0,0,0.008680555555555556,11.206597222222223,0)" xlink:href="#aI"/><use transform="matrix(0.008680555555555556,0,0,0.008680555555555556,21.52777777777778,0)" xlink:href="#aH"/><use transform="matrix(0.008680555555555556,0,0,0.008680555555555556,28.125000000000004,0)" xlink:href="#aI"/></g><g id="Z"><use transform="matrix(0.008680555555555556,0,0,0.008680555555555556,0,0)" xlink:href="#aL"/><use transform="matrix(0.008680555555555556,0,0,0.008680555555555556,10.460069444444445,0)" xlink:href="#aC"/><use transform="matrix(0.008680555555555556,0,0,0.008680555555555556,17.265625,0)" xlink:href="#aD"/><use transform="matrix(0.008680555555555556,0,0,0.008680555555555556,28.02951388888889,0)" xlink:href="#aI"/><use transform="matrix(0.008680555555555556,0,0,0.008680555555555556,38.35069444444444,0)" xlink:href="#aH"/><use transform="matrix(0.008680555555555556,0,0,0.008680555555555556,44.68749999999999,0)" xlink:href="#aD"/></g><g id="aa"><use transform="matrix(0.008680555555555556,0,0,0.008680555555555556,0,0)" xlink:href="#aI"/><use transform="matrix(0.008680555555555556,0,0,0.008680555555555556,10.321180555555555,0)" xlink:href="#aL"/><use transform="matrix(0.008680555555555556,0,0,0.008680555555555556,20.78125,0)" xlink:href="#aJ"/><use transform="matrix(0.008680555555555556,0,0,0.008680555555555556,31.68402777777778,0)" xlink:href="#aP"/><use transform="matrix(0.008680555555555556,0,0,0.008680555555555556,42.751736111111114,0)" xlink:href="#aK"/><use transform="matrix(0.008680555555555556,0,0,0.008680555555555556,53.81944444444445,0)" xlink:href="#aH"/></g><g id="ab"><use transform="matrix(0.010850694444444444,0,0,0.010850694444444444,0,0)" xlink:href="#aQ"/><use transform="matrix(0.010850694444444444,0,0,0.010850694444444444,12.47829861111111,0)" xlink:href="#aT"/><use transform="matrix(0.010850694444444444,0,0,0.010850694444444444,26.085069444444443,0)" xlink:href="#aU"/><use transform="matrix(0.010850694444444444,0,0,0.010850694444444444,45.55121527777778,0)" xlink:href="#av"/><use transform="matrix(0.010850694444444444,0,0,0.010850694444444444,50.93315972222221,0)" xlink:href="#au"/></g><path fill="#333" d="M342 19c-98 0-173-75-173-172s75-172 173-172 173 75 173 172S440 19 342 19" id="bj"/><g id="ac"><use transform="matrix(0.008680555555555556,0,0,0.008680555555555556,0,0)" xlink:href="#aW"/><use transform="matrix(0.008680555555555556,0,0,0.008680555555555556,4.817708333333334,0)" xlink:href="#aJ"/><use transform="matrix(0.008680555555555556,0,0,0.008680555555555556,15.720486111111112,0)" xlink:href="#aE"/><use transform="matrix(0.008680555555555556,0,0,0.008680555555555556,26.953125,0)" xlink:href="#bj"/><use transform="matrix(0.008680555555555556,0,0,0.008680555555555556,32.890625,0)" xlink:href="#aJ"/><use transform="matrix(0.008680555555555556,0,0,0.008680555555555556,43.79340277777778,0)" xlink:href="#aP"/><use transform="matrix(0.008680555555555556,0,0,0.008680555555555556,54.861111111111114,0)" xlink:href="#aH"/></g><g id="ad"><use transform="matrix(0.008680555555555556,0,0,0.008680555555555556,0,0)" xlink:href="#aN"/><use transform="matrix(0.008680555555555556,0,0,0.008680555555555556,11.206597222222223,0)" xlink:href="#aD"/><use transform="matrix(0.008680555555555556,0,0,0.008680555555555556,21.796875,0)" xlink:href="#aW"/><use transform="matrix(0.008680555555555556,0,0,0.008680555555555556,26.614583333333336,0)" xlink:href="#aD"/><use transform="matrix(0.008680555555555556,0,0,0.008680555555555556,37.204861111111114,0)" xlink:href="#aH"/><use transform="matrix(0.008680555555555556,0,0,0.008680555555555556,43.54166666666666,0)" xlink:href="#aD"/></g><g id="ae"><use transform="matrix(0.008680555555555556,0,0,0.008680555555555556,0,0)" xlink:href="#aD"/><use transform="matrix(0.008680555555555556,0,0,0.008680555555555556,10.590277777777779,0)" xlink:href="#aN"/><use transform="matrix(0.008680555555555556,0,0,0.008680555555555556,21.796875,0)" xlink:href="#aF"/><use transform="matrix(0.008680555555555556,0,0,0.008680555555555556,26.614583333333336,0)" xlink:href="#aH"/></g><path d="M157-1118h181V80c1 225-123 350-364 338V252c126 9 184-48 183-172v-1198zm91-183c-68 0-125-53-125-119s57-119 125-119c69 0 126 53 126 119s-57 119-126 119" id="bk"/><g id="af"><use transform="matrix(0.010850694444444444,0,0,0.010850694444444444,0,0)" xlink:href="#aQ"/><use transform="matrix(0.010850694444444444,0,0,0.010850694444444444,12.47829861111111,0)" xlink:href="#an"/><use transform="matrix(0.010850694444444444,0,0,0.010850694444444444,25.618489583333332,0)" xlink:href="#ao"/><use transform="matrix(0.010850694444444444,0,0,0.010850694444444444,32.99696180555555,0)" xlink:href="#aQ"/><use transform="matrix(0.010850694444444444,0,0,0.010850694444444444,45.47526041666666,0)" xlink:href="#aR"/><use transform="matrix(0.010850694444444444,0,0,0.010850694444444444,55.60980902777778,0)" xlink:href="#ap"/><use transform="matrix(0.010850694444444444,0,0,0.010850694444444444,67.5564236111111,0)" xlink:href="#aT"/><use transform="matrix(0.010850694444444444,0,0,0.010850694444444444,81.16319444444443,0)" xlink:href="#bk"/></g><g id="ag"><use transform="matrix(0.008680555555555556,0,0,0.008680555555555556,0,0)" xlink:href="#aW"/><use transform="matrix(0.008680555555555556,0,0,0.008680555555555556,4.817708333333334,0)" xlink:href="#aJ"/><use transform="matrix(0.008680555555555556,0,0,0.008680555555555556,15.894097222222223,0)" xlink:href="#aI"/><use transform="matrix(0.008680555555555556,0,0,0.008680555555555556,26.21527777777778,0)" xlink:href="#aN"/><use transform="matrix(0.008680555555555556,0,0,0.008680555555555556,37.421875,0)" xlink:href="#aF"/><use transform="matrix(0.008680555555555556,0,0,0.008680555555555556,42.239583333333336,0)" xlink:href="#aK"/><use transform="matrix(0.008680555555555556,0,0,0.008680555555555556,53.30729166666667,0)" xlink:href="#aE"/></g><g id="ah"><use transform="matrix(0.008680555555555556,0,0,0.008680555555555556,0,0)" xlink:href="#aM"/><use transform="matrix(0.008680555555555556,0,0,0.008680555555555556,11.206597222222223,0)" xlink:href="#aF"/><use transform="matrix(0.008680555555555556,0,0,0.008680555555555556,16.024305555555557,0)" xlink:href="#aL"/><use transform="matrix(0.008680555555555556,0,0,0.008680555555555556,26.484375,0)" xlink:href="#aH"/><use transform="matrix(0.008680555555555556,0,0,0.008680555555555556,32.994791666666664,0)" xlink:href="#aP"/><use transform="matrix(0.008680555555555556,0,0,0.008680555555555556,44.0625,0)" xlink:href="#aC"/><use transform="matrix(0.008680555555555556,0,0,0.008680555555555556,50.86805555555556,0)" xlink:href="#aD"/></g></defs></g></svg>